<?xml version="1.0" encoding="utf-8"?>
<!-- Generator: Adobe Illustrator 26.1.0, SVG Export Plug-In . SVG Version: 6.00 Build 0)  -->
<svg version="1.1" id="Layer_1" xmlns="http://www.w3.org/2000/svg" xmlns:xlink="http://www.w3.org/1999/xlink" x="0px" y="0px"
	 viewBox="0 0 512 512" style="enable-background:new 0 0 512 512;" xml:space="preserve">
<g>
	<path d="M280.09,4.69c2.04,0.21,10.8,0.88,11.76,1c16.83,1.95,33.35,5.41,49.61,10.13c13.31,3.86,26.01,9.28,38.59,15.09
		c7.3,3.37,14.55,7.04,20.85,11.69c5.66,4.18,11.99,7.55,17.06,12.69c3.24,3.28,7.59,5.48,10.85,8.89
		c5.91,6.18,12.38,11.77,17.96,18.33c9.58,11.24,17.25,23.71,25.12,36.11c7.15,11.25,13.24,23,18.69,35.12
		c4.05,9.01,6.39,18.59,9.64,27.86c3.85,10.99,5.44,22.41,8.08,33.61c1.36,5.76,1.05,11.91,1.52,17.89c0.07,0.89,0.27,1.76,0.4,2.64
		c0,11.55,0,23.1,0,34.65c-1.02,4.06-1.49,8.27-1.92,12.36c-0.74,7.1-2.49,13.94-3.92,20.85c-2.25,10.83-4.68,21.6-8.4,32.09
		c-7.18,20.29-16.64,39.41-27.86,57.73c-5.64,9.21-12.14,17.73-19.18,25.93c-7.91,9.22-16.21,18.01-25.54,25.74
		c-8.86,7.35-17.75,14.64-27.68,20.65c-10.32,6.25-20.71,12.29-31.6,17.45c-11.24,5.33-23.02,9.23-34.81,13.09
		c-13.74,4.49-27.95,6.68-42.22,8.94c-7.88,1.25-15.81-0.18-23.5,1.89c-2.85,0-5.7,0-8.55,0c-3.23-1.22-6.69-1.38-9.97-1.13
		c-7.19,0.54-14.12-0.94-21.17-1.72c-9.2-1.02-18.27-2.71-27.09-5.19c-23.07-6.47-45.19-15.37-66.1-27.22
		c-14.94-8.47-29.13-18.07-41.7-29.68c-7.98-7.37-15.86-14.94-22.93-23.36c-6.11-7.28-12.45-14.32-17.7-22.26
		c-3.59-5.43-7.03-10.97-10.33-16.57c-3.49-5.92-6.66-12.04-10.14-17.97c-2.3-3.94-2.77-8.58-5.03-12.48
		c-4.93-8.51-6.25-18.34-10.09-27.26c-1.59-3.69-1.3-8.16-2.65-12c-3-8.55-3.37-17.57-5.24-26.31c-1.91-8.95-2.05-18.09-2.2-27.21
		c-0.03-2.11-0.08-4.2-1.03-6.14c0-0.75,0-1.5,0-2.25c2.87-3.89,1.44-8.48,1.61-12.65c0.7-17.27,3.55-34.09,8.41-50.66
		c2.56-8.73,4.67-17.69,8.81-25.74c2.76-5.37,4.23-11.42,8.12-16.19c3.79-4.65,4.98-10.64,8.18-15.6c2.26-3.5,4.27-7.18,6.67-10.59
		c5.48-7.79,10.82-15.71,17.35-22.67c6.58-7.02,13.42-13.81,20.35-20.49c4.65-4.47,9.56-8.68,14.54-12.79
		c3.26-2.68,7.04-4.74,10.25-7.47c6.01-5.11,12.81-9,19.5-13.04c10.23-6.18,21.04-11.21,32.02-16c11.15-4.87,22.77-8.19,34.27-11.86
		c9.67-3.09,19.93-3.98,29.85-6.14c8.13-1.78,15.88-1.52,24.44-2.49C260.96,3.12,265.2,3.33,280.09,4.69z M282.52,499.76
		c5.01-1.09,10.23-1.07,15.28-2.01c14.71-2.74,29.07-6.57,43.15-11.93c9.8-3.73,19.59-7.21,29.02-11.92
		c13.62-6.8,26.22-15.09,38.37-24.16c7.26-5.42,14.64-10.65,20.69-17.59c4.7-5.4,10.66-9.76,14.96-15.42
		c6.13-8.06,13.34-15.26,18.54-24.13c2.73-4.66,5.8-9.22,8.55-13.89c4.69-7.98,8.45-16.44,12.28-24.89
		c4.27-9.41,7.52-19.13,10.72-28.84c3.63-11.01,5.96-22.42,7.68-33.97c1.11-7.44,2.72-14.83,3.2-22.34
		c0.44-7.02,0.32-14.07,0.42-21.1c0.09-6.76,0.84-13.52-0.9-20.24c-0.82-3.15-1.18-6.47-1.33-9.73c-0.27-5.86-1.69-11.51-2.95-17.17
		c-1.45-6.5-3.32-12.95-4.99-19.38c-2.12-8.17-4.98-16.08-8.19-23.67c-5.63-13.3-12.66-25.98-20.63-38.17
		c-6.87-10.51-13.37-21.22-21.9-30.53c-2.61-2.85-4.5-6.38-7.19-9.14c-3.89-4-8.17-7.62-12.36-11.32
		c-4.79-4.23-9.32-8.86-14.57-12.44c-5.7-3.88-11.09-8.2-17.21-11.55c-6.74-3.69-13.34-7.64-20.4-10.73
		c-3.69-1.61-7.88-2.34-11.2-4.47c-6.63-4.23-14.21-5.63-21.45-7.72c-7.89-2.28-15.91-4.31-24.1-5.77
		c-9.55-1.69-19.07-3.49-28.73-4.36c-6.48-0.58-12.98-1-19.47-1.25c-7.33-0.29-14.71-0.87-21.98-0.27
		c-6.35,0.52-12.7,1.58-19.05,2.42c-11.39,1.51-22.59,3.9-33.76,6.86c-9.5,2.52-18.79,5.47-27.89,9
		c-11.43,4.44-22.69,9.3-33.18,15.8c-7.61,4.72-15.35,9.21-22.58,14.52c-6.24,4.58-12.19,9.52-18.15,14.46
		c-8.13,6.74-15.85,13.92-22.85,21.74c-5.13,5.72-10.03,11.72-14.58,18.02c-5.52,7.64-10.7,15.43-15.15,23.7
		c-1.33,2.48-3.79,4.65-4.32,6.97c-0.98,4.29-2.95,7.97-4.97,11.64c-4.29,7.78-6.69,16.32-9.8,24.54c-2.95,7.8-4.49,16.18-6.23,24.4
		c-1.59,7.51-3.3,15.11-3.69,22.74c-0.36,7.18-0.98,14.38-1.1,21.6c-0.16,10.26,0.73,20.43,1.75,30.54
		c0.94,9.26,3.57,18.35,5.36,27.53c1.85,9.5,4.53,18.77,7.72,27.89c1.52,4.33,3.43,8.52,5.25,12.74c3.03,7.01,5.59,14.29,9.32,20.91
		c5.16,9.14,11.07,17.87,16.96,26.57c3.18,4.69,7.03,8.92,10.52,13.4c1.24,1.59,2.16,3.43,3.46,4.97
		c8.97,10.6,18.81,20.42,29.56,29.15c6.55,5.32,13.67,10.05,20.53,15.03c9.84,7.16,20.54,12.71,31.24,18.2
		c11.8,6.06,24.58,10,37.11,14.33c11.3,3.91,22.98,6.62,34.89,8.13c8.67,1.1,17.32,2.66,26.02,3.01
		C259.62,500.94,271.09,501.1,282.52,499.76z"/>
	<path d="M440.45,255.38c0.72,8.21-1.35,17.14-2.31,26.21c-1.19,11.26-4.81,21.81-8.09,32.41c-3.64,11.77-9.81,22.49-15.95,33.23
		c-4.49,7.85-9.65,15.08-15.19,22.07c-3.12,3.93-6.73,7.57-10.25,11.22c-6.3,6.54-13.12,12.41-20.26,17.92
		c-10.7,8.26-22.1,15.28-34.72,20.48c-7.82,3.23-15.4,6.95-23.69,8.92c-11.95,2.84-23.85,5.42-36.22,6.27
		c-13,0.89-25.74-0.38-38.61-1.26c-11.04-0.76-21.61-3.45-31.85-6.84c-9.62-3.18-19.18-6.94-28.28-11.73
		c-5.49-2.89-10.52-6.51-15.85-9.6c-4.87-2.82-9.3-6.93-13.91-10.44c-6.92-5.26-13.15-11.22-19.34-17.24
		c-3.4-3.3-6.45-7.02-9.33-10.79c-4.02-5.27-8.24-10.49-11.49-16.23c-4.84-8.54-9.66-17.1-13.37-26.29
		c-4.51-11.16-7.93-22.66-11.16-34.18c-2.21-7.89-2.58-16.26-3.48-24.47c-0.7-6.38-0.04-12.69-0.62-18.99
		c-0.58-6.27,1.46-12.21,1.97-18.34c0.7-8.46,2.17-16.86,4.96-24.93c2.14-6.19,4.61-12.26,6.62-18.48c2.66-8.23,6.63-15.8,11.29-23
		c3.88-5.99,7.76-11.97,11.88-17.82c5.73-8.15,12.87-14.84,19.86-21.7c6.55-6.44,14.13-11.66,21.51-17.12
		c7.76-5.74,16.23-10.15,24.87-14.11c13.19-6.03,26.84-11,41.18-13.68c11.31-2.11,22.6-4.36,34.23-3.98
		c7.62,0.25,15.38-0.76,22.85,0.35c6.34,0.94,12.77,1.77,19.11,2.97c5.62,1.06,10.95,2.94,16.46,4.26
		c8.51,2.05,16.27,5.97,24.26,9.29c12.37,5.15,23.56,12.36,34.24,20.37c14.89,11.17,27.75,24.46,38.16,39.79
		c8.83,13,15.44,27.29,20.62,42.22c5.56,16.04,8.43,32.58,9.86,49.41C440.76,245.82,440.45,250.11,440.45,255.38z M83.19,259.95
		c0.53,15.29,3.91,30.07,8.06,44.7c3.63,12.82,9.39,24.6,16.05,36.22c9.42,16.44,21.67,30.25,35.41,42.91
		c7.82,7.2,16.69,13,25.78,18.6c6.91,4.26,13.94,8.15,21.3,11.4c11.77,5.19,23.9,9.28,36.65,11.52c19.9,3.5,39.83,4.04,59.83,1.29
		c9.27-1.27,18.18-4.23,27.24-6.48c10.95-2.72,20.54-8.59,30.76-12.93c6.95-2.95,13.15-7.87,19.48-12.28
		c10.14-7.07,19.07-15.41,27.34-24.44c8.09-8.83,14.73-18.77,20.46-29.36c3.74-6.91,7.92-13.62,10.71-20.94
		c2.55-6.68,4.36-13.66,6.23-20.58c1.77-6.56,3.74-13.14,4.58-19.85c0.68-5.43,0.59-11.12,1.49-16.44
		c1.77-10.54,0.12-20.85-0.32-31.24c-0.42-9.8-3.41-19.16-5.75-28.62c-2.16-8.76-5.07-17.25-8.84-25.45
		c-4.09-8.89-8.37-17.7-14.21-25.59c-6.88-9.28-14.57-17.82-22.84-25.96c-9.18-9.04-19.52-16.4-30.38-23.03
		c-12.53-7.65-26.19-12.83-40.13-17.49c-16.37-5.47-33.26-7.11-50.19-7.49c-15.38-0.35-30.74,1.6-45.7,5.68
		c-6.25,1.71-12.68,3.06-18.64,5.51c-9.98,4.09-20.13,7.92-29.26,13.88c-4.05,2.64-8.62,4.43-12.41,7.55
		c-3.74,3.07-7.6,5.99-11.43,8.94c-3.89,3-7.95,5.85-11.19,9.55c-5.77,6.6-12.18,12.66-17.1,19.99
		c-3.68,5.48-7.92,10.66-11.03,16.45c-4.06,7.57-8.29,15.03-10.82,23.47c-2.37,7.92-5.73,15.57-6.86,23.84
		c-1.41,10.32-5.44,20.3-4.23,30.93C83.82,249.49,83.04,254.7,83.19,259.95z"/>
	<path d="M59.09,317.6c9.84-0.07,19.78,10.61,19.79,18.86c0.02,15.64-7.04,24.37-22.81,24.23c-6.92-0.06-17.33-11.64-17.54-19.06
		C38.08,326.27,49.42,318.36,59.09,317.6z M59.47,345.86c-0.17-0.84-0.32-1.96-0.64-3.03c-0.33-1.11-0.81-1.98-2.2-0.91
		c-2.35,1.82-3.79,4.38-5.58,6.65c-0.85,1.08-1.24,2.81,0.43,3.45C54.3,353.11,59.45,349.15,59.47,345.86z M60.99,326.35
		c0.46-0.98-1.02-2.33-2.27-2.72c-1.71-0.54-1.83,1.47-2.26,2.67c-0.58,1.6-1.25,3.19-1.59,4.85c-0.49,2.37,0.7,4.36,2.83,4.88
		c2.28,0.55,1.69-1.93,2.05-3.16C60.26,331.08,60.46,329.22,60.99,326.35z M68.72,347.27c-0.44-2.92-1.11-5.48-4.24-6.41
		c-0.93-0.28-1.78-0.21-2.51,0.45c-0.74,0.67-0.28,1.41,0.05,2.04c1.3,2.52,2.6,5.04,4,7.5c0.47,0.83,1.39,0.79,1.75-0.09
		C68.26,349.61,68.44,348.34,68.72,347.27z M67.37,332.28c0,0.01,0,0.01,0,0.02c-0.89,0-1.79-0.1-2.67,0.02
		c-1.6,0.22-2.97,0.93-2.9,2.78c0.08,2.07,1.76,1.74,3.16,1.89c2.15,0.22,3.86-0.98,5.73-1.63c0.73-0.25,1.3-0.87,1.18-1.71
		c-0.14-0.96-0.96-1.28-1.82-1.35C69.16,332.22,68.26,332.28,67.37,332.28z M50.43,340.55c1.23-0.66,4.07-0.39,3.5-2.09
		c-1.01-2.99-4.45-3.5-7.25-4.34c-0.95-0.29-1.67,0.17-1.53,1.28C45.55,338.41,47.64,339.74,50.43,340.55z"/>
	<path d="M455.72,318.95c6.46-0.43,16.58,10.25,16.66,17.14c0.22,18.24-8.62,23.86-17.38,23.75c-12.61-0.17-18.6-7.67-19.2-20.81
		C435.36,329.43,446.07,318.99,455.72,318.95z M454.84,345.29c0.06-1.95-1.22-3.11-3.09-2.17c-2.5,1.26-4.93,2.95-6.17,5.65
		c-0.75,1.63-0.49,3.19,1.75,3.45C451.17,352.67,454.88,349.34,454.84,345.29z M456.4,328.99c-0.55-1.54,0.18-3.54-1.78-3.95
		c-1.75-0.37-2.25,1.36-2.93,2.58c-0.55,0.98-1.23,1.89-1.71,2.89c-1.38,2.89,0.36,4.86,2.57,5.78c2.02,0.84,2.27-1.55,2.74-2.92
		C455.8,331.92,456.06,330.37,456.4,328.99z M464.31,348.42c-0.24-1.67-0.32-3.5-1.35-5.04c-1.38-2.07-3.67-2.53-5.52-1.52
		c-2.02,1.1-0.18,2.68,0.49,3.97c0.71,1.39,1.33,2.84,2.2,4.12c0.65,0.96,1.61,2.01,2.96,1.47
		C464.32,350.95,464.25,349.65,464.31,348.42z M447.24,342.31c1.41-0.47,3.14-0.62,3.65-1.99c0.47-1.28-0.86-2.26-1.8-3.07
		c-0.9-0.77-1.85-1.64-2.93-2c-1.77-0.6-4.49-1.42-4.46,1.46C441.72,339.74,444.3,341.52,447.24,342.31z M458.41,338.78
		c1.47-0.35,2.89-0.36,3.91-1.01c1.74-1.1,5.67-0.76,4.92-3.31c-0.85-2.9-4.36-1.97-6.97-1.49c-1.34,0.25-2.02,1.22-2.64,2.26
		c-0.5,0.84-1.02,1.78-0.52,2.74C457.33,338.39,458.03,338.56,458.41,338.78z"/>
	<path d="M181.53,468.37c-2.13-0.84-4.68-1.68-7.06-2.88c-1.21-0.61-1.21-2.37-0.01-2.73c4.67-1.42,4.86-5.42,5.61-9.08
		c0.63-3.1,2.41-5.6,3.92-8.25c1.07-1.88,1.29-3.58-0.54-5.23c-1.11-1-1.78-2.33-0.54-3.75c1.22-1.39,2.31-0.34,3.59,0.12
		c7.02,2.51,5.66,9.78,8.43,14.68c1.14,2,1.79,4.27,2.72,6.4c0.37,0.85,1,1.55,2.02,1.55c1.03,0.01,1.34-0.85,1.63-1.62
		c0.99-2.66,1.91-5.35,2.93-7.99c0.58-1.51-0.29-2.39-1.21-3.32c-0.71-0.72-1.34-1.55-0.74-2.59c0.58-1,1.62-1.04,2.6-0.73
		c2.34,0.74,4.67,1.55,6.99,2.37c0.67,0.24,1.19,0.7,1.15,1.49c-0.05,0.99-0.78,1.52-1.61,1.62c-2.6,0.32-3.55,2.08-4.24,4.31
		c-1.81,5.83-5.22,11.08-6.26,17.23c-0.22,1.3-1.02,3-3.02,2.75c-2.08-0.26-2.76-1.79-3.09-3.61c-1.18-6.56-3.36-12.77-6.61-18.6
		c-0.28-0.51-0.43-1.32-1.18-1.07c-0.47,0.16-0.96,0.74-1.13,1.24c-1.33,3.8-2.6,7.63-3.85,11.46c-0.41,1.27,0.3,2.15,1.2,2.91
		c0.66,0.55,1.27,1.14,0.91,2.09C183.77,468.11,182.89,468.33,181.53,468.37z"/>
	<path d="M292.89,462.38c0.49,3.82,0.95,7.53,1.45,11.23c0.21,1.53,1.53,1.66,2.69,1.95c1.24,0.3,2.84,0.52,2.72,2.13
		c-0.12,1.67-1.76,1.74-3.11,1.96c-1.84,0.29-3.68,0.64-5.5,1.05c-1.12,0.25-2.16,0.22-2.82-0.79c-0.72-1.1-0.17-1.99,0.76-2.7
		c2.22-1.69,1.92-4.16,1.24-6.19c-1.28-3.79-1.43-7.63-1.49-11.51c-0.04-2.35-0.84-4.24-2.76-5.61c-0.94-0.67-2.48-0.92-2.28-2.44
		c0.22-1.73,1.94-1.98,3.21-2.44c1.3-0.47,2.73-0.82,4,0.39c4.9,4.68,9.96,9.17,15.38,13.25c0.71,0.53,1.43,0.9,2.27,0.47
		c0.88-0.46,1.07-1.42,0.76-2.16c-1.64-3.88-0.35-8.82-4.98-11.73c-1.72-1.08,0.07-3.01,1.79-3.52c1.85-0.55,3.8-0.75,5.71-1.06
		c1.07-0.17,1.97,0.17,2.35,1.26c0.36,1-0.06,1.79-0.99,2.22c-1.46,0.68-1.81,1.79-1.63,3.31c0.67,5.57,1.32,11.14,1.86,16.72
		c0.14,1.49,0.55,2.74,1.46,3.91c0.6,0.77,1.21,1.72,0.28,2.61c-0.85,0.82-1.99,0.93-2.89,0.17c-2.76-2.34-5.7-4.54-8.07-7.23
		c-2.74-3.1-5.73-5.7-9.51-7.3C292.45,459.38,293.16,461.44,292.89,462.38z"/>
	<path d="M44.61,193.44c-0.43,0.07-1.32,0.23-2.21,0.33c-0.9,0.11-1.86,0.24-2.42-0.71c-0.48-0.82-0.16-1.66,0.34-2.32
		c0.92-1.22,1.06-2.62,1.17-4.04c0.08-1.02,0.09-1.99,1.38-2.22c1.2-0.21,2.17,0.24,2.57,1.33c1.42,3.8,4.64,4.05,7.94,4.16
		c0.95,0.03,1.84-0.3,2.23-1.23c1.06-2.51,2.17-5,3-7.59c0.43-1.34-0.77-2.29-1.82-2.8c-2.86-1.39-5.8-2.63-8.9-0.48
		c-0.59,0.41-1.26,0.6-1.86,0.05c-0.76-0.69-0.93-1.69-0.49-2.48c1.04-1.9,1.92-3.8,2.4-5.96c0.29-1.32,2.38-1.84,2.72-0.56
		c0.88,3.29,3.62,3.58,5.95,4.4c4.15,1.47,8.38,2.7,12.63,3.87c2.25,0.62,4.57,0.92,6.55-0.99c0.48-0.46,1.3-0.46,1.87,0.06
		c0.61,0.55,0.5,1.37,0.1,1.86c-1.82,2.3-1.83,4.97-1.86,7.69c-0.01,1.04-0.2,2.26-1.6,2.31c-1.36,0.05-1.97-0.95-2.2-2.14
		c-0.81-4.07-4-5.18-7.4-5.42c-3.25-0.23-3.43,2.74-4.1,5c-0.06,0.22-0.15,0.42-0.21,0.64c-0.49,1.99-2.95,4.47-0.96,5.85
		c2.61,1.82,5.99,3.2,9.53,1.42c1.14-0.58,2.64-1.52,3.68-0.15c1.04,1.37-0.49,2.34-1.26,3.22c-1.21,1.39-0.92,2.91-0.84,4.47
		c0.06,1.22,0.05,2.53-1.56,2.79c-1.51,0.24-1.87-0.86-2.15-2.03c-0.28-1.16-1.08-1.95-2.05-2.57
		C62.04,197.44,48.31,193.43,44.61,193.44z"/>
	<path d="M174.52,440.15c-0.05,8.98-7.77,17.3-15.94,17.17c-8.71-0.15-15.53-6.55-15.52-14.76c0.01-9.17,8.7-17.75,16.9-17.51
		C167.8,425.27,174.15,430.38,174.52,440.15z M157.3,452.46c8.62,0.35,12.64-10.75,11.49-16.67c-0.81-4.16-5.85-6.82-9.94-5.78
		c-6.78,1.72-9.02,7.26-9.57,13.13C148.68,449.28,150.64,452.92,157.3,452.46z"/>
	<path d="M401.14,427.4c1.54,0.17,2.95-0.26,4.36-0.85c1.03-0.42,2.2-0.41,2.72,0.78c0.56,1.27-0.36,1.9-1.42,2.35
		c-2.52,1.07-4.6,2.74-6.45,4.75c-1.31,1.43-2.59,1.41-3-0.71c-0.41-2.11-2.02-2.11-3.52-2.48c-1.16-0.28-2.28-0.75-3.45-0.98
		c-2.01-0.4-4.84-1.89-5.42,1.22c-0.59,3.12,1.8,5.07,4.85,5.67c1.23,0.24,2.87-0.12,3.15,1.45c0.29,1.59-1.31,2.21-2.49,2.79
		c-1.54,0.76-2.72,1.74-3.39,3.39c-0.38,0.93-1.21,1.59-2.33,1.39c-1.22-0.22-1.6-1.31-1.37-2.24c1.57-6.61-4.61-9.64-6.76-14.53
		c-1.5-3.4-4.28-6.11-8.78-6.33c-1.75-0.09-1.13-2.05,0.02-2.86c2.1-1.49,4.62-2.32,6.44-4.31c0.56-0.61,1.83-0.96,2.69-0.16
		c0.82,0.76,0.31,1.7-0.09,2.49c-1.41,2.78-0.04,4.62,2.14,6.04c1.2,0.78,3.04,0.62,3.19-0.77c0.34-3.09,1.9-6.39-0.59-9.35
		c-0.33-0.39-0.71-0.83-0.82-1.3c-0.3-1.2,0.07-2.58,1.12-2.92c2.88-0.91,3.74-5.46,7.57-4.3c1.59,0.48,0.98,1.97,0.13,2.72
		c-4.64,4.09-2.16,10.02-3.89,14.87c-0.5,1.4,1.18,2.43,2.54,2.62C392.54,426.47,396.85,426.9,401.14,427.4z"/>
	<path d="M244.63,462.63c-0.46,11.65-6.46,15.2-15.85,16.53c-3.91,0.55-8.55-0.6-12.78-1.42c-1.03-0.2-2.03-0.78-2.16-2.01
		c-0.12-1.15,0.88-1.45,1.69-1.81c1.14-0.51,1.73-1.44,1.87-2.61c0.73-6.21,1.43-12.42,2.14-18.63c0.09-0.8-0.04-1.47-0.84-1.9
		c-1.11-0.61-1.77-1.53-1.1-2.77c0.67-1.22,2.03-1.56,3.14-1.05c3.86,1.78,8.08,1.17,12.07,2.05
		C239.9,450.57,243.73,456.62,244.63,462.63z M238.7,463.5c-0.32-6.54-2.64-9.78-8.41-11.4c-1.64-0.46-3.96-1.22-4.47,1.33
		c-1.23,6.12-2.16,12.31-3.11,18.48c-0.34,2.21,0.91,3.48,3.05,3.55C232.13,475.65,240.48,471.59,238.7,463.5z"/>
	<path d="M114.95,98.77c-2.42,0.04-3.9-0.48-4.46,0.9c-0.52,1.26,0.88,1.91,1.59,2.72c1.42,1.64,3.08,3.11,4.28,4.89
		c1.64,2.43,3.71,3.57,6.61,3.34c0.89-0.07,1.92-0.04,2.24,1.05c0.31,1.03-0.45,1.64-1.15,2.24c-1.57,1.35-3,2.92-4.73,4.01
		c-1.73,1.09-2.94,0.44-2.67-1.79c0.3-2.51-0.87-4.05-2.68-5.73c-2.57-2.4-4.76-5.27-6.84-8.13c-1.69-2.32-3.12-4.61-6.56-4.03
		c-1.03,0.17-2.25-0.18-2.39-1.5c-0.15-1.42,0.72-2.46,1.97-2.99c2.46-1.03,5.01-1.62,7.66-0.71c4.51,1.55,9.18,2.05,13.9,2.32
		c0.96,0.05,2.05,0.4,2.52-0.82c0.48-1.24-0.12-2.33-1.12-2.91c-3.35-1.95-4.97-6.6-9.89-6.19c-0.91,0.08-2.11-1.4-1.14-2.32
		c1.86-1.77,3.96-3.4,6.23-4.56c1.58-0.81,2.46,0.48,1.85,2.06c-0.89,2.29,0.17,3.49,1.77,4.95c2.14,1.94,3.92,4.29,5.81,6.5
		c2.24,2.62,4.72,4.97,7.55,6.94c0.99,0.69,1.76,1.6,1.11,2.83c-0.66,1.25-1.82,0.91-2.98,0.67
		C126.89,101.14,120.32,99.84,114.95,98.77z"/>
	<path d="M205.6,50.25c3.18,0.09,5.01-1.87,6.46-4.4c0.4-0.7,0.77-1.64,1.77-1.45c1.01,0.19,1.38,1.14,1.51,2.04
		c0.23,1.56,0.38,3.11,1.26,4.5c0.49,0.77,0.86,1.65,0.15,2.49c-0.81,0.95-1.85,0.84-2.89,0.43c-2.41-0.96-4.84-1.59-7.37-0.48
		c-0.47,0.21-1.16,0.43-1.3,0.8c-1.22,3.26,0.85,5.95,1.98,8.63c0.74,1.78,3.14,1.22,4.65,0.44c2.79-1.44,6.13-2.23,7.43-5.7
		c0.32-0.85,1.18-1.4,2.23-0.98c0.89,0.36,1.2,1.14,1.11,2.01c-0.33,3.38-1.48,5.79-5.38,6.68c-5.14,1.18-10.12,3.07-15.16,4.67
		c-0.8,0.25-1.58,0.61-2.31-0.08c-0.57-0.54-0.64-1.39-0.22-1.86c4.29-4.73,0.04-9-0.71-13.43c-0.35-2.04-1.2-3.99-1.65-6.02
		c-0.58-2.6-1.55-4.68-4.58-5.03c-0.8-0.09-1.34-0.69-1.33-1.57c0.01-1.04,0.63-1.88,1.57-1.91c6.69-0.21,12.61-3.65,19.15-4.47
		c1.26-0.16,2.25,0.2,2.64,1.51c0.41,1.38,1.58,2.85,0.22,4.18c-1.04,1.01-2.19,0.22-3.29-0.35c-3.41-1.74-6.85-0.61-9.6,1.11
		c-2.15,1.35-0.26,3.97,0.25,6C202.64,49.78,203.83,50.45,205.6,50.25z"/>
	<path d="M264.93,449.91c9.69-0.69,15,8.14,15.26,15.11c0.33,9.08-7,17.04-15.23,17.22c-6.94,0.15-14.41-8.66-14.42-17.02
		C250.54,457.02,257.23,449.89,264.93,449.91z M273.85,465.78c0.38-5.84-1.91-10.2-6.11-11.78c-3.57-1.34-6.76-0.25-9.03,2.69
		c-3.1,4.02-3.2,14.69,0.53,18.87c2.87,3.21,6.48,3.37,9.93,1.34C273.57,474.29,274.34,469.89,273.85,465.78z"/>
	<path d="M84.48,155.7c0.06-1.24-0.16-2.37-0.97-3.37c-0.6-0.74-0.95-1.62-0.18-2.43c0.78-0.82,1.79-0.7,2.72-0.3
		c3.39,1.47,4.39,4.47,2.47,7.83c-2.14,3.75-4.44,7.4-6.63,11.12c-0.45,0.77-0.71,1.65-1.01,2.49c-0.34,0.93-0.61,1.98-1.86,1.92
		c-1.13-0.05-1.4-1.07-1.57-1.93c-0.25-1.27-1.13-1.97-2.13-2.45c-5.12-2.42-9.36-6.38-14.77-8.27c-1.72-0.6-3.36-1.22-5.13-0.04
		c-0.68,0.45-1.62,0.49-2.33-0.1c-0.69-0.56-0.75-1.52-0.3-2.05c3.93-4.63,4.82-11.11,9.42-15.34c1.68-1.54,3.38-1.35,5.18-0.58
		c0.82,0.35,1.66,0.97,1.51,2.02c-0.17,1.13-1.25,1.02-2.1,1.28c-3.5,1.09-6.02,3.66-6.77,6.97c-0.7,3.09,2.7,3.91,4.86,5.07
		c1.33,0.71,3.01,0.49,3.87-0.81c1.14-1.71,2.99-3.36,1.74-5.85c-0.56-1.12-1.5-2.4-0.2-3.44c1.17-0.93,2.14,0.41,3.23,0.77
		c5.11,1.69,5.89,3.38,0.7,6.46c-1.44,0.85-4.45,2.67-3.11,5.28c1.55,3.02,4.85,4.11,8.08,4.55C81,164.73,84.46,158.68,84.48,155.7z
		"/>
	<path d="M365.81,448.08c0.11-1.88-0.74-3.45-1.57-4.93c-1.83-3.25-3.11-6.71-4.34-10.21c-0.68-1.94-2.59-2.06-4.18-2.64
		c-0.79-0.29-1.65-0.54-1.8-1.49c-0.16-0.98,0.62-1.53,1.33-1.9c1.92-0.99,3.87-1.91,5.86-2.74c0.33-0.14,1.01,0.17,1.33,0.48
		c0.53,0.51,0.57,1.24,0.16,1.87c-1.09,1.68-0.61,3.21,0.18,4.87c1.94,4.04,3.69,8.16,5.59,12.22c2.91,6.22,1.01,9.55-4.8,13.55
		c-8.97,6.17-15.32-0.06-18.88-8.79c-1.65-4.03-2.95-8.29-8.15-9.13c-0.69-0.11-1.24-0.57-1.24-1.39c-0.01-0.93,0.49-1.57,1.28-1.95
		c2.67-1.31,5.56-2.15,7.96-4.04c0.74-0.59,1.9-0.59,2.71,0.21c0.59,0.59,0.76,1.58,0.24,2.07c-3.84,3.66-1.1,7.04,0.7,10.06
		c2.04,3.41,3.5,7.3,6.69,9.93c1.75,1.44,3.58,2.21,5.95,0.86C363.66,453.39,365.4,451.26,365.81,448.08z"/>
	<path d="M382.79,68.13c-0.34-1.54-0.33-2.57,0.93-3.07c1.22-0.49,1.61,0.67,2.38,1.18c3.6,2.39,3.17,2.95-0.25,6.21
		c-4.94,4.69-10.03,10.06-12.44,16.96c-0.33,0.95-0.89,1.59-1.9,1.64c-1.24,0.06-1.85-0.74-2.27-1.81c-0.74-1.87-0.1-3.75,0.08-5.56
		c0.48-4.87-1.95-9.57-0.68-14.45c0.26-0.99-0.28-1.82-1.19-2.18c-0.98-0.38-1.86,0.15-2.29,0.98c-1.85,3.64-4.34,6.8-7.05,9.81
		c-1.07,1.18-0.78,2.47-0.1,3.76c0.5,0.94,0.62,1.91-0.47,2.55c-0.94,0.55-1.84,0.4-2.67-0.36c-0.88-0.8-1.83-1.51-2.72-2.29
		c-1.17-1.03-1.49-2.69-0.09-3.15c3.44-1.13,4.39-4.34,6.34-6.67c2.49-2.98,4.66-6.22,7.01-9.33c1.27-1.68,1.59-3.31,0.22-5.12
		c-0.76-1.01-1.18-2.26,0.14-3.15c1.31-0.88,2.19,0.08,3.05,1c3.42,3.7,3.84,8.22,3.47,12.92c-0.27,3.41-0.15,6.73,1.44,9.85
		c0.83,1.63,2.03,2.03,3.43,0.8C380.44,75.74,381.9,71.88,382.79,68.13z"/>
	<path d="M307.24,34.08c7.41,0.01,13.48,5.72,13.54,12.76c0.09,9.68-7.05,17.88-15.56,17.87c-7.83-0.01-12.85-6.49-12.84-16.56
		C292.4,40.38,299.05,34.07,307.24,34.08z M297.38,51.14c-0.01,5.9,1.92,8.93,6.21,9.78c3.91,0.78,8.13-1.7,9.87-6.05
		c0.77-1.91,1.06-4.01,1.64-6.01c1.11-3.8-0.92-9.43-3.96-10.81c-4.03-1.83-9.7-0.44-11.56,3.35
		C298.11,44.38,297.19,47.69,297.38,51.14z"/>
	<path d="M396.63,107.91c-4.88-0.93-10.26-1.91-13.92-6.66c-1.19-1.55-2.5-2.94-4.33-3.83c-1.44-0.71-1.47-2.05,0.08-2.35
		c6.85-1.33,9.07-7.82,13.42-11.88c2.15-2.01,5.27-4.03,4.09-8.21c-0.32-1.14,2.06-1.81,2.69-0.69c2.74,4.9,8.51,6.92,10.92,12.25
		c2.18,4.82,2.06,10.22-1.51,14.16C402.87,106.42,400.69,107.86,396.63,107.91z M406.69,92.05c0.06-3.98-0.99-7-3.44-9.33
		c-1.87-1.78-3.93-1.52-5.68,0.38c-3.53,3.82-7.01,7.67-10.54,11.48c-2.17,2.33-2.06,4.83,0.29,6.61c3.62,2.75,7.94,4.07,12.17,1.66
		C403.73,100.43,407.19,97.07,406.69,92.05z"/>
	<path d="M339.28,71.14c2.01,0.06,4.44-2.06,5.89-5.38c1.4-3.21,2.47-6.57,3.86-9.79c1.03-2.4,2.21-4.65-0.03-7.04
		c-0.52-0.56-0.44-1.45,0.14-2.07c0.65-0.7,1.36-0.3,2.05,0.02c1.83,0.85,3.66,1.69,5.5,2.51c1.13,0.5,2.08,1.74,0.85,2.27
		c-6.78,2.92-6.76,9.85-9.16,15.24c-2.12,4.76-5.9,7.88-11.17,7.7c-9.37-0.31-14.12-8.82-9.74-17.03c1.89-3.54,3.1-7.44,4.46-11.24
		c0.25-0.7-0.21-1.73-0.53-2.53c-0.39-0.98-1.1-1.95-0.13-2.88c0.93-0.88,1.96-0.29,2.93,0.11c2,0.82,4.01,1.63,6.02,2.42
		c0.71,0.28,1.53,0.46,1.5,1.41c-0.04,1.03-0.88,1.06-1.65,1.09c-2.98,0.11-3.72,2.6-4.58,4.64c-1.63,3.85-3.03,7.81-4.35,11.78
		C329.38,67.6,331.68,70.7,339.28,71.14z"/>
	<path d="M128.71,435.48c0.49-0.02,0.64-0.04,0.79-0.04c1.56-0.03,3.52-1.61,4.46,0.87c0.69,1.84-0.94,2.89-2,3.93
		c-1.46,1.44-3.16,1.72-5.11,0.59c-4.48-2.58-8.74-5.33-11.83-9.67c-0.76-1.07-2.59-1.37-3.92-2.03c-0.95-0.47-1.5-1.25-1.52-2.32
		c-0.02-0.81,0.6-1.43,1.23-1.37c5.53,0.47,7.18-4.3,10-7.39c2.1-2.31,3.8-4.97,5.74-7.42c1.3-1.65,1.85-3.33,1.08-5.42
		c-0.44-1.2,0.3-1.99,1.4-2.43c1-0.4,1.99-0.45,2.55,0.63c1.24,2.38,3.37,3.73,5.56,5.04c0.68,0.41,1.21,0.92,1.15,1.78
		c-0.06,0.81-0.51,1.71-1.25,1.66c-5.73-0.39-7.5,4.38-10.32,7.77c-1.29,1.55-2.57,3.11-3.9,4.61c-1.88,2.13-2.8,4.42-1.38,7.16
		C123.05,434.53,126.15,434.81,128.71,435.48z"/>
	<path d="M466.04,224.9c3.51-1.43,8.09-0.42,11.8-3.06c0.81-0.58,2.15-0.9,2.6,0.12c0.72,1.64,1.53,3.62,1.21,5.24
		c-0.3,1.5-1.8-0.06-2.79-0.17c-1.85-0.21-3.76-0.43-5.57-0.16c-5.68,0.86-11.49,0.87-17.02,2.73c-1.18,0.4-2.63,0.72-3.34-0.84
		c-0.79-1.75,0.59-2.37,1.8-3.03c4.73-2.6,6.61-7.85,10.48-11.25c0.5-0.44,0.89-1.01,1.39-1.47c1-0.93,2.29-1.91,1.43-3.39
		c-0.9-1.54-2.35-0.71-3.61-0.27c-2.26,0.79-4.66-0.34-7,0.64c-1.84,0.78-3.98,0.86-5.17,2.8c-0.08,0.12-0.2,0.22-0.32,0.31
		c-0.71,0.52-1.76,0.56-1.99-0.11c-0.73-2.19-2.01-4.39-0.88-6.82c0.4-0.88,1.46-1.34,2.04-0.68c2.49,2.85,5.37,1.25,8.16,0.98
		c3.57-0.35,7.15-0.67,10.73-0.93c1.52-0.11,2.71-0.8,3.82-1.72c0.97-0.8,1.95-2.11,3.25-0.93c1.27,1.15,0.72,2.92-0.1,3.93
		c-4.06,4.97-8.29,9.79-12.51,14.62c-0.65,0.75-1.52,1.36-1.16,2.47C463.63,225,464.67,224.83,466.04,224.9z"/>
	<path d="M458.08,169.7c6.33,0.01,13.89,6.51,13.87,11.89c-0.02,10.81-8.03,16.21-15.94,17.02c-5.7,0.58-14.5-6.37-14.9-10.29
		C439.91,176.35,450.62,170.72,458.08,169.7z M445.02,185.69c-0.36,2.53,0.65,4.43,2.82,6.2c6.44,5.25,16.89,0.17,20.45-5.77
		c3.12-5.21-3.38-12.43-7.48-11.93c-4.38,0.53-8.69,1.29-12.39,4.13C445.95,180.21,444.4,182.3,445.02,185.69z"/>
	<path d="M271.69,52.51c-0.19,1.5,0.21,3.58,2.34,5.08c0.62,0.44,0.85,1.26,0.45,2.04c-0.39,0.77-1.11,0.98-1.91,0.85
		c-2.52-0.39-5.03-0.81-7.55-1.21c-0.65-0.1-1.14-0.4-1.27-1.08c-0.14-0.72,0.02-1.41,0.66-1.78c2.33-1.34,2.32-3.47,2.44-5.83
		c0.25-4.52,1.91-8.91,1.29-13.55c-0.21-1.54-0.47-2.94-1.57-4.1c-0.56-0.59-1.28-1.18-0.81-2.13c0.41-0.83,1.25-1.17,2.08-1.12
		c5.89,0.4,11.81,0.61,17.64,1.43c2.7,0.38,2.91,3.34,2.57,5.49c-0.24,1.56-1.82,1.34-2.74,0.19c-2.75-3.42-6.53-3.23-10.26-2.93
		c-1.73,0.14-2.17,1.79-2.26,3.22c-0.11,1.99-0.35,4.26,1.72,5.46c1.81,1.05,3.8,0.69,5.54-0.46c0.8-0.53,1.44-1.31,2.23-1.88
		c0.84-0.61,1.81-0.88,2.68-0.08c0.85,0.77,0.83,1.76,0.24,2.66c-0.66,1-0.88,2.02-0.62,3.2c0.21,0.94,0.47,2.03-0.59,2.64
		c-1.22,0.7-2.11-0.11-2.96-0.9c-2.15-2-4.69-2.35-7.3-1.33C271.29,47.32,271.82,49.66,271.69,52.51z"/>
	<path d="M85.07,111.97c3.63,1.19,7.22,2.49,10.87,3.54c4.17,1.2,8.4,2.19,12.6,3.27c1.33,0.34,2.64,0.41,3.99-0.02
		c1.02-0.33,2.18-0.56,2.76,0.65c0.53,1.11-0.17,1.99-0.93,2.78c-0.52,0.54-1.11,1.04-1.49,1.66c-1.79,2.9-3.16,4.88-5.66,0.22
		c-1.23-2.3-4.58-2.88-6.6-0.49c-2.1,2.48-6.55,4.62-2.91,9.1c0.6,0.74,1.25,1.27,2.24,1.3c1.45,0.05,3.14,0.42,2.71,2.13
		c-0.52,2.04-1.89,4.03-4.11,4.52c-1.84,0.4-1.87-1.45-2.51-2.73c-2.39-4.78-5.18-9.35-7.6-14.12c-1.6-3.16-2.92-6.41-5.17-9.25
		C81.99,112.95,83.59,112.24,85.07,111.97z M93.2,118.75c-1.17,0.04-2.24,0.11-2.03,1.38c0.32,1.98,0.73,4.28,3.15,4.56
		c1.24,0.14,2.58-1.36,2.55-2.65C96.82,119.8,94.84,119.21,93.2,118.75z"/>
	<path d="M150.45,58.37c2,0.29,2.8,1.06,1.91,2.66c-0.86,1.55-0.45,2.74,0.85,3.71c2.58,1.93,5.16,3.85,7.79,5.7
		c0.81,0.57,1.88,0.81,2.75,0.14c1.04-0.8,1.45-2.11,0.99-3.25c-1.6-3.99,0.32-9.58-5.29-11.78c-0.23-0.09-0.47-0.68-0.39-0.95
		c0.66-2.37,2.97-2.78,4.72-3.82c1.17-0.69,2.46-0.72,3.6,0.14c0.3,0.23,0.62,0.98,0.51,1.1c-2.49,2.77-0.67,5.68-0.01,8.32
		c1.57,6.27-0.65,12.98,2.36,19.05c0.41,0.82-0.08,1.6-0.81,2.14c-0.87,0.64-1.82,0.54-2.46-0.17c-4.32-4.76-10.25-7.47-14.93-11.74
		c-2.18-1.99-4.71-2.8-7.32-3.66c-1.18-0.39-2.35-0.94-2.36-2.37c-0.01-1.26,1.18-1.56,2.12-2.04
		C146.58,60.49,148.65,59.34,150.45,58.37z"/>
	<path d="M237.44,39.85c1.77,4.99,1.07,10.89,2.46,16.49c0.14,0.55,0.45,1.25,0.89,1.49c3.92,2.12,2.26,3.08-0.74,3.81
		c-1.38,0.33-2.75,0.73-4.14,0.97c-1.39,0.23-3,0.59-3.85-0.96c-0.85-1.54,1.03-1.88,1.53-2.84c0.37-0.7,0.86-1.63,0.67-2.28
		c-1.55-5.4-0.6-11.01-1.56-16.45c-0.32-1.78-0.92-3.22-3.05-3.21c-1.99,0.01-3.56,0.62-3.81,2.93c-0.13,1.21-0.7,2.01-2.02,1.88
		c-1.38-0.13-1.93-1.11-1.94-2.34c-0.03-3.61,1.61-5.75,5.38-6.13c4.99-0.5,9.96-1.11,14.94-1.71c3.07-0.37,6.33,3.28,5.52,6.29
		c-0.11,0.42-0.59,0.92-1,1.04c-0.92,0.26-1.6-0.38-2.04-1.08c-1.2-1.89-2.98-2.42-5.04-2.25
		C237.11,35.72,237.67,37.71,237.44,39.85z"/>
	<path d="M67.43,216.65c-1.46,1.98-1.69,4.58-1.24,7.4c0.14,0.87-1.45,2.25-2.17,1.02c-2.41-4.13-6.77-3.04-10.22-4.03
		c-3.74-1.08-7.8-1.08-11.73-1.47c-1.62-0.16-3.05,0.45-3.66,2.03c-0.59,1.53,0.09,2.91,1.04,4.17c0.81,1.08,3.77,1.4,2.01,3.34
		c-1.56,1.73-4.03,0.6-5.84-0.32c-1.25-0.64-1.91-2.1-1.54-3.7c1.3-5.54,2.46-11.08,1.85-16.84c-0.17-1.64,0.68-2.87,2.19-3.6
		c1.71-0.83,3.51-1.21,5.14-0.05c2.03,1.44,0.38,2.49-0.78,2.87c-2.64,0.87-3.34,2.6-2.82,5.04c0.55,2.6,2.73,2.27,4.65,2.5
		c4.52,0.53,9.06,0.99,13.53,1.81c2.62,0.49,4.72,0.31,6.35-1.96c0.51-0.72,1.26-1.12,2.16-0.77
		C67.26,214.45,67.34,215.31,67.43,216.65z"/>
	<path d="M411.62,118.31c-2.08,0.09-3.42,0.67-4,2.46c-0.36,1.12-1.07,2.37-2.36,1.78c-1.69-0.77-3.02-2.28-3.57-4.06
		c-0.4-1.27,1.09-1.49,1.94-1.67c8.42-1.81,16.29-5.36,24.57-7.6c0.98-0.27,1.96-0.42,2.7,0.44c0.76,0.89,0.39,1.95-0.07,2.75
		c-1.86,3.21-3.68,6.44-5.62,9.6c-2.24,3.64-4.09,7.75-4.08,12.31c0,1.32,0.29,2.9-1.42,3.41c-1.7,0.51-2.54-0.85-3.42-1.96
		c-0.65-0.82-1.28-1.64-1.93-2.46c-1.29-1.64-1.08-2.82,0.99-3.58c4.06-1.49,4.62-4.06,1.56-7.2
		C415.25,120.83,414.36,118.06,411.62,118.31z M421.19,114.64c-1.84,0.26-4.5-0.06-4.55,2.64c-0.04,2.18,2.36,3.24,4.22,3.26
		c2.46,0.02,2.78-2.48,3.04-4.29C424.14,114.51,422.46,114.78,421.19,114.64z"/>
	<path d="M439.44,127.36c-1.37,0.31-2.93-0.2-2.7-1.99c0.31-2.53,2.79-2.37,4.64-2.52c1.52-0.13,2.54,0.89,3.3,2.27
		c2.19,4,4.59,7.86,7.65,11.27c2.97,3.31,2.89,6.94-0.23,9.11c-1.02,0.71-2.11,0.91-3.12,0.13c-1.01-0.79-0.49-1.78-0.05-2.64
		c1-1.92,1.61-4-0.19-5.58c-1.93-1.69-3.59-0.01-5.41,0.92c-3.78,1.93-7.33,4.21-10.91,6.47c-1.98,1.25-3.9,2.35-3.41,5.16
		c0.1,0.56-0.05,1.11-0.74,1.15c-0.96,0.05-1.81-0.33-2.33-1.11c-1.19-1.8-2.38-3.61-3.43-5.49c-0.69-1.24,0.07-2.4,1.24-2.17
		c4.34,0.84,7.43-1.3,10.61-3.7c2.38-1.79,4.99-3.29,7.57-4.81c1.71-1,2.7-2.44,2.02-4.25
		C443.31,127.88,441.68,127.08,439.44,127.36z"/>
	<path d="M185.15,68.27c-1.96-5.03-4.12-10.74-6.42-16.4c-0.51-1.26-2.06-1.05-3.15-1.45c-0.95-0.35-1.86-0.8-1.81-1.99
		c0.04-1.06,0.84-1.58,1.75-1.8c2.9-0.7,5.82-1.31,8.38-2.99c0.76-0.5,1.61-0.34,2.19,0.45c0.64,0.86,0.31,1.66-0.47,2.1
		c-2.64,1.5-2.13,3.65-1.27,5.84c1.66,4.23,3.34,8.46,5.09,12.66c0.92,2.2,1.81,4.5,4.83,4.62c0.82,0.03,1.32,0.7,1.29,1.57
		c-0.03,0.94-0.56,1.67-1.45,1.76c-2.63,0.24-4.83,1.44-7.02,2.75c-1.44,0.86-2.96,0.85-4.02-0.58c-1.04-1.41,0.37-2.14,1.16-2.94
		C185.02,71.04,185.34,70.1,185.15,68.27z"/>
	<path d="M462.67,157.58c-0.02,1.29-0.75,1.85-1.46,1.42c-4.88-2.97-8.4,0.77-12.24,2.48c-2.86,1.27-5.5,3.03-8.21,4.62
		c-1.32,0.78-2.43,1.75-2.54,3.46c-0.04,0.69-0.21,1.41-1.06,1.51c-0.84,0.1-1.58-0.37-1.79-1.09c-0.66-2.32-2.31-3.99-3.61-5.9
		c-0.47-0.69-0.92-1.51-0.1-2.21c0.74-0.63,1.61-0.41,2.24,0.22c1.54,1.55,3.13,1.04,4.74,0.23c5.05-2.57,10.09-5.16,15.15-7.72
		c1.26-0.64,1.64-1.88,2.31-2.94c0.45-0.71,1.04-1.33,1.98-1.26c1.06,0.09,1.36,0.96,1.36,1.78
		C459.42,154.73,461.92,155.79,462.67,157.58z"/>
	<path d="M332.67,455.79c1.53,0.03,2.55,0.08,2.83,1.31c0.24,1.05-0.06,1.97-1.07,2.47c-2.14,1.05-4.29,2.09-6.48,3.05
		c-1.58,0.69-2.59-0.2-3.25-1.52c-0.65-1.3-0.2-2.55,1.01-3.03C328.13,457.09,330.66,456.43,332.67,455.79z"/>
	<path d="M143.75,81.4c1.35,0,2.12,0.25,2.53,1.09c0.46,0.92,0.29,1.84-0.44,2.47c-1.7,1.45-3.39,2.94-5.27,4.12
		c-1.32,0.83-2.63,0.16-3.42-1.16c-0.75-1.26-0.36-2.31,0.85-3.05C140.02,83.62,142.07,82.42,143.75,81.4z"/>
	<path d="M243.88,362.16c1.83,0.16,3.84-0.35,5.91-1.25c3.3-1.44,6.28-0.4,8.28,2.53c3.1,4.56,3.03,8.16,0.55,10.84
		c-5.37,5.78-11.7,8.1-19.46,6.04c-2.3-0.61-4.47,0.4-6.63,0.85c-4.38,0.91-8.62-0.88-12.97-0.36c-2.63,0.31-4.36,1.48-5.77,3.66
		c-2.69,4.15-5.44,4.95-9.89,2.69c-2.73-1.39-5.5-1.77-8.46-1.68c-3.3,0.1-5.96-1.2-7.96-3.85c-1.49-1.96,0.03-3.16,1.3-4.08
		c1.76-1.27,1.99-2.36,0.87-4.29c-2.79-4.78-0.59-9.35,5.16-10.91c1.57-0.43,3.3-0.28,4.88-0.68c3.62-0.91,7.28-1.65,7.95-6.48
		c0.59-4.29,3.92-6.19,7.72-7.24c2.55-0.71,4.62-1.96,6.35-3.97c3.12-3.63,6.98-3.57,11.35-2.32c5.37,1.52,10.76,4.34,16.77,2.31
		c2.14-0.72,2.9-1.83,3.03-4.03c0.52-8.78,1.39-17.53,3.6-26.06c1.52-5.88-0.06-11.87,1.04-17.74c0.2-1.07-0.68-2.07-1.65-2.79
		c-2.68-2-2.6-5.13,0.18-7.05c0.56-0.39,1.36-0.62,0.83-1.49c-0.51-0.85-1.25-0.86-2.13-0.4c-3.34,1.73-3.45,4.64-2.27,7.5
		c1.32,3.21,0.25,5.56-3.29,6.38c-4.11,0.95-8.65,1.07-11.77,4.44c-3.09,3.33-6,6.83-8.79,10.41c-4.09,5.24-7.16,11.43-14.82,12.65
		c-5.62,0.89-11.21,1.51-16.79,0.3c-2.97-0.65-4.06-4.34-2.41-6.96c0.37-0.59,1.3-1.08,0.52-1.88c-0.64-0.67-1.61-0.6-2.33-0.23
		c-4.18,2.17-8.73,3.21-13.25,4.18c-7.5,1.6-14.91,3.03-22.83,1.46c-7.99-1.59-16.11-2.45-23.54-6
		c-10.86-5.2-20.01-12.38-24.12-24.14c-1.72-4.92-2.02-10.35-2.88-15.55c-0.15-0.92-0.14-2.1,1.14-2.37
		c1.45-0.3,2.04,0.77,2.31,1.92c1.12,4.85,3.79,8.69,7.42,11.99c1.35,1.23,2.69,2.45,4.51,2.82c1.65,0.33,3.81,1.73,4.79-0.54
		c0.93-2.16-0.02-4.34-1.68-6.12c-6.18-6.63-11.84-13.5-11.85-23.32c0-2.22-0.77-4.42-0.97-6.66c-0.13-1.4,0.31-2.84,2.07-2.93
		c1.64-0.08,1.97,1.38,1.97,2.52c-0.03,7.93,5.88,11.24,11.43,14.77c1.31,0.84,3.02,0.83,4.17-0.41c1.16-1.24,0.8-2.71,0.04-4.17
		c-4.41-8.42-7.56-17.29-9.36-26.64c-0.23-1.19-0.59-2.59,0.85-3.14c1.62-0.63,2.06,0.94,2.46,1.97c2.47,6.23,7.89,9.75,12.57,13.99
		c3.15,2.86,6.49,5.45,9.79,8.12c6.56,5.29,13.67,9.1,21.6,11.94c8.87,3.18,17.87,3.8,27.08,3.73c1.67-0.01,2.64-0.78,3.12-2.35
		c4.84-15.84,16.61-24.11,31.59-28.87c0.36-0.11,0.75-0.2,1.04-0.41c1.68-1.27,5.05-0.68,5.23-3.2c0.18-2.57-3.41-1.63-4.6-3.05
		c-4.66-5.54-11.89-5.75-17.71-8.84c-2.48-1.32-4.54-2.94-6.26-5.27c-2.2-2.97-6.19-3.64-8.91-6.19c-1.46-1.37-3.05-2.48-4.09-4.28
		c-1.2-2.07-2.69-3.92-4.83-5.18c-0.82-0.48-1.92-1.16-2.1-1.94c-0.86-3.82-3.48-6.09-6.45-8.23c-1.57-1.13-2.6-2.8-3.21-4.75
		c-1.24-4.01-2.71-7.8-6.57-10.32c-1.78-1.16-2.81-3.34-2.9-5.84c-0.1-2.75-3.08-4.01-3.77-6.78c-0.9-3.59-3.28-6.61-5.78-9.44
		c-0.97-1.1-1-2.71-0.82-4.09c0.29-2.19-0.44-3.53-1.92-5.28c-1.59-1.88-2.38-4.87-2.48-7.42c-0.07-1.87,2.02-2.97,4.09-1.89
		c12.71,6.68,26.35,10.55,40.19,14.19c13.27,3.49,25.91,8.64,35.03,19.93c6.24,7.72,12.53,15.49,20.68,21.39
		c3.45,2.5,7.03,4.84,11.06,6.37c0.67,0.25,1.51,0.8,2.07,0.04c0.61-0.82-0.08-1.57-0.61-2.18c-4.29-4.95-10.15-8.09-14.78-12.65
		c-8.38-8.25-11.76-18.29-10.45-29.87c0.17-1.47,1.54-2.87,2.51-4.19c1.8-2.44,2.1-4.74,0.27-7.41c-2.79-4.07-2.9-8.43-0.4-12.72
		c3.52-6.05,13.35-9.98,20.23-9.02c7.14,1,14.51,2.89,21.37-1.43c0.75-0.47,1.86-0.91,2.45,0c0.73,1.12-0.41,1.86-1.17,2.31
		c-6.39,3.76-9.04,11.77-16.46,14.44c-1.27,0.46-2.93,2.04-2.27,3.73c0.73,1.85,2.5,3.19,4.48,3.74c4.93,1.36,9.55,3.3,11,8.68
		c1.04,3.88,1.79,8.04,1.58,12.01c-0.24,4.41,1.34,6.75,5.38,7.58c2.85,0.59,5.77,0.83,8.67,1.2c5.14,0.66,10.07,1.91,14.72,4.36
		c1.14,0.6,2.92,1.48,4.14-0.06c1.25-1.59-0.26-2.67-0.99-3.95c-3.03-5.32-6.59-10.26-10.13-15.24c-3.33-4.7-4.04-10.02-4.05-15.74
		c-0.01-6.16,1.97-11.9,2.61-17.87c0.98-9.23-2.58-17.78-5.07-26.45c-0.45-1.59-1.33-3.23,0.35-4.54c1.68-1.33,3.45-0.84,4.97,0.35
		c5.15,4.01,11.02,7.42,15.18,12.29c6.01,7.05,13.36,12.67,19.22,19.76c1.96,2.37,2.92,5.56,4.61,8.19
		c3.97,6.15,8.51,11.97,12.04,18.35c2.74,4.95,6.03,9.74,7,15.65c0.66,3.98,2.39,7.7,2.94,11.85c1.51,11.54,0.74,22.78-2.36,33.95
		c-0.8,2.87-1.34,5.81-1.91,8.74c-0.19,0.99-0.48,2.2,0.54,2.92c0.95,0.67,2.02,0.25,3.01-0.15c0.69-0.29,1.37-0.61,2.08-0.87
		c6.87-2.49,11.06-1.66,15.3,3c3.78,4.16,4.82,12.22,1.98,17.38c-0.9,1.63-1.12,4.88-3.47,4.3c-2.14-0.53-1.2-3.63-1.57-5.59
		c-0.38-2.05-0.51-4.15-0.74-6.23c-0.1-0.85-0.16-1.81,0.84-2.07c1.03-0.27,1.11,0.75,1.37,1.42c0.19,0.49,0.29,1.02,0.54,1.48
		c0.49,0.89-0.17,2.85,0.82,2.65c1.44-0.29,1.18-2.17,1.13-3.5c-0.17-4.96-2.25-8.71-6.78-11.03c-1.57-0.8-3.18-1.16-4.77-0.57
		c-6.42,2.42-13.34,2.45-19.88,4.27c-2.03,0.56-3.66,1.77-4.58,3.4c-1.74,3.07-4.53,4.43-7.53,5.61c-3.19,1.25-5.69,3.38-7.39,6.25
		c-2.77,4.67-6.81,8.3-9.88,12.71c-0.13,0.18-0.4,0.28-0.48,0.47c-1.44,3.59-3.61,4.63-7.8,4.28c-3.84-0.32-4.25,4.15-4.42,7.16
		c-0.16,2.89,2.25,3.44,4.83,3.8c4.77,0.66,9.51-0.41,9.67-5.34c0.18-5.47,3.38-8.02,6.36-11.32c1.06-1.17,1.77-2.85,2.15-4.41
		c1.49-6.2,7.98-6.8,11.6-10.58c2-2.09,4.3-3.9,6.42-5.89c1.86-1.75,3.49-1.66,4.71,0.61c0.94,1.75,2.32,3.03,4.22,2.8
		c2.01-0.23,1.82-2.27,2.04-3.79c0.28-1.93,1.64-2.93,3.26-3.33c2.99-0.74,6.06-0.15,8.24,1.87c2.04,1.89,2.86,4.56,1.87,7.62
		c-0.48,1.47-0.05,3.24,0.04,4.88c0.11,2-0.42,3.89-2.55,4.11c-2.43,0.25-1.1-2.02-1.58-3.13c-1.38-3.17,1.73-5.42,1.54-8.39
		c-0.24-3.83-3.48-5.91-6.86-4.12c-0.73,0.39-1.2,0.9-0.93,1.8c0.3,0.98,2.3,1.69,0.68,2.96c-1.7,1.34-3.56,2.73-5.93,1.9
		c-1.54-0.54-3.06-1.26-4.44-2.13c-1.76-1.11-3.27-0.82-4.73,0.38c-3.72,3.07-6.79,7.01-11.54,8.72c-0.07,0.02-0.16,0.06-0.19,0.12
		c-2.75,6.08-8.7,10.49-10.1,17.04c-1.95,9.12-10.68,13.92-19.03,9.55c-2.14-1.12-2.94-2.89-2.6-5.23c0.48-3.31-1.41-3.97-3.92-3.06
		c-5.82,2.11-11.82,4.08-14.36,10.71c-0.38,1-1.22,2-2.11,2.59c-9.02,5.99-11.45,15.99-15.77,24.97
		c-4.21,8.75-6.26,17.88-7.58,27.32c-0.39,2.76,1.12,4.42,3.48,5.35c2.82,1.12,5.77,1.48,8.81,1.29c1.03-0.07,2.29-0.22,3.09,0.27
		c7.64,4.6,16.49,3.19,24.71,4.83c5.8,1.16,12.17,2.05,18.09-0.69c1.49-0.69,3.13-0.93,4.61-0.35c3.97,1.54,8.08,2.91,11.72,5.05
		c3.6,2.12,2.85,5.71,1.07,8.75c-2.13,3.61-0.69,4.74,2.82,4.83c1.39,0.03,2.68,0.37,3.84,1.1c2.66,1.67,5.51,2.1,8.62,1.7
		c2.23-0.28,4.81-0.54,5.69,2.27c0.81,2.58-0.21,4.69-2.33,6.53c-3.82,3.31-8.25,3.61-12.91,3.19c-1-0.09-1.97-0.24-2.78,0.46
		c-3.24,2.81-7.02,3.11-11,2.33c-2.71-0.53-5.35-0.69-7.89,0.68c-0.38,0.2-0.88,0.25-1.32,0.24c-4.94-0.07-9.67,0.3-14.58,1.81
		c-4.72,1.45-9.07-2.32-13.28-4.5c-4.18-2.16-9.55-1.79-12.75,1.44c-1.89,1.9-4.32,2.6-6.78,2.51c-4.75-0.17-9.16-1.66-12.82-4.81
		c-3.03-2.61-2.26-7.25,1.34-8.85c2.99-1.33,5.99-2.65,8.9-4.14c1.65-0.84,2.39-2.24,0.76-3.77c-1.75-1.64-2.49-3.57-2.66-5.93
		c-0.16-2.24-2.36-2.88-3.91-3.14c-7.25-1.21-14.57-1.52-21.86-0.23c-1.9,0.34-2.55,1.68-1.78,3.57c0.26,0.63,0.55,1.45-0.18,1.82
		c-0.51,0.26-1.39,0.25-1.9-0.03c-2.3-1.23-4.68-2.4-6.75-3.97c-2.59-1.97-1.32-4.49-0.23-6.69c0.91-1.84,1.15-2.59-1.41-3.21
		c-2.71-0.65-5-3.25-8.14-1.31c-0.45,0.28-1.18,0.48-1.28,0.86c-1.27,4.79-5.26,5-9.12,5.79c-2.89,0.59-3.85,3.19-3.48,5.79
		c0.36,2.53,2.72,2.71,4.8,2.64c2.55-0.09,4.87,0.66,7.21,1.49c1.68,0.59,3.29,0.13,4.64-0.94c0.67-0.54,0.47-1.42,0.05-2.07
		c-1-1.55-2.6-1.2-4.07-1.16c-1.6,0.05-3.96,0.69-4.07-1.45c-0.11-2.17,2.18-3.06,4.23-3.08c1.7-0.02,3.48,0.21,5.11,0.7
		c3.13,0.94,4.5,3.06,3.52,6.37c-1.22,4.1-6.41,6.08-10.39,5.15c-4.86-1.15-9.72-2.34-14.6-3.41c-2.66-0.58-5.75,4.31-4.57,6.77
		c1.45,3.02,0.3,5.62-2.96,6.36c-2.13,0.49-4.01,0.97-4.68,3.51c-0.19,0.72-1.42,1.21-2.24,1.69c-0.48,0.28-1.59-0.65-1.6,0.45
		c-0.01,0.91,1.15,1.3,1.92,1.16c4.71-0.86,8.83,0.38,12.76,2.97c0.82,0.54,2.37,0.26,3.49-0.02c0.91-0.23,1.67-1.02,1.35-2.25
		c-0.3-1.18-1.08-1.59-2.2-1.32c-1.01,0.24-1.99,0.66-3,0.85c-1.25,0.23-2.91,0.47-3.29-0.97c-0.33-1.28,0.8-2.28,2.29-2.46
		c1.55-0.19,2.1-1.23,2.25-2.64c0.68-6.35,5.07-9.79,11.51-8.75c2.56,0.42,5.03,0.54,7.56-0.01c2.31-0.5,4.08,0.46,4.75,2.69
		c0.8,2.64-0.26,4.91-2.36,6.53c-0.75,0.58-1.93,0.29-2.72-0.4c-0.71-0.62-0.73-1.49-0.28-2.27c1.14-1.94,0.28-2.51-1.55-2.14
		c-2.12,0.42-3.9,0.58-6.12-0.52c-2.46-1.22-5.11,0.24-6.96,2.37c-0.89,1.03-0.73,2.31,0,3.36c1.3,1.86,3.75,2.35,5.23,1.62
		c4.17-2.06,8.27-0.63,12.37-0.5c2.19,0.07,4.06,0.1,6.18-0.99c2.15-1.11,4.79-1.9,7.16,0.6c1.31,1.39,9.42-0.93,10.83-2.64
		c2.1-2.56,4.89-4.85,2.23-8.68c-1.27-1.83-2.97-2.88-4.96-1.99c-2.36,1.05-4.65,1.39-7.15,1.07c-0.88-0.11-1.89-0.08-2.25,1.03
		c-0.52,1.63-0.43,3.31,0.33,4.81c0.53,1.04,1.69,0.79,2.64,0.52c2.01-0.58,3.95-1.42,6.1-1.38c0.71,0.02,1.46,0.02,1.71,0.76
		c0.17,0.5,0.17,1.26-0.1,1.67c-2.2,3.3-12.01,2.68-13.8-0.84C234.69,366.09,237.03,362.16,243.88,362.16z M146.15,262.74
		c2.12,3.06,5.6,4.27,8.53,6.24c0.18,0.12,0.54-0.01,0.82-0.03c-0.06-0.19-0.08-0.51-0.2-0.55c-3.4-1.33-5.19-5.22-9.11-5.7
		c-3.34-4.78-9.33-6.64-12.64-11.49c-1.04-1.53-2.4-2.83-3.66-4.2c-0.44-0.48-1.31-1.15-1.68-0.4c-1.05,2.12,0.49,4,0.99,5.96
		c0.29,1.13,0.97,2.37,2.32,1.85c2.55-0.99,3.64,0.66,4.62,2.31C138.41,260.57,142.16,261.82,146.15,262.74z M213.64,285.97
		c-0.11-7.6,1.56-12.6,6.57-19.87c3.41-4.94,8.43-8.32,13.09-12.01c0.84-0.66,1.93-0.19,2.66,0.55c0.81,0.81,0.69,1.78,0.09,2.68
		c-0.92,1.39-2.44,1.94-3.83,2.66c-6.98,3.63-11.17,9.06-10.86,17.24c0.35,9.27,3.71,17.99,5.03,27.09
		c0.04,0.25,0.48,0.44,0.73,0.66c0.21-0.36,0.64-0.75,0.6-1.07c-0.67-5.33-0.14-10.7-0.77-16.07c-0.62-5.35-1.23-10.82,0.66-16.19
		c2.51-7.14,7.63-11.93,13.6-16.09c1.52-1.06,2.93-2.18,4.88-1.55c0.44,0.14,1.09,0.96,0.99,1.26c-0.57,1.78-2.15,2.56-3.71,3.34
		c-8.47,4.21-12.46,11.25-12.56,20.52c-0.08,7.48,1.01,14.94,0.4,22.43c-0.04,0.44,0.2,1.22,0.49,1.31c0.81,0.26,1.1-0.54,1.48-1.08
		c2.35-3.28,2.67-7.1,2.65-10.91c-0.04-7.17,1.53-14.04,4.69-20.31c3.67-7.28,10.36-12.05,16.3-17.38c2.05-1.84,3.37-1.24,4.08,1.17
		c0.36,1.22,0.94,2.04,2.23,2.17c1.3,0.13,2.33-0.31,3.05-1.47c0.62-1.01,1.22-2.07,2.01-2.94c0.57-0.63,1.48-0.77,2.27-0.21
		c0.61,0.43,0.97,1.21,0.59,1.77c-2.17,3.18-1.69,7.46-4.48,10.4c-3.44,3.62-3.55,8.11-2.76,12.66c0.62,3.58,0.23,6.66-2.86,9.06
		c-2.07,1.61-2.53,4-1.22,6.06c3.31,5.23,2.8,11.28,1.73,16.37c-1.75,8.37-1.66,16.96-3.85,25.19c-0.71,2.67-0.53,5.32-0.47,8.01
		c0.05,2.45-0.39,4.33-3.33,5.28c-3.77,1.22-7.54,1.18-11.34,1.09c-2.62-0.06-3.8,1.54-4.63,3.52c-0.3,0.71,0.08,1.73,0.26,2.58
		c0.02,0.08,0.87,0.16,1.2-0.02c6-3.22,12.67-2.51,19.08-3.4c6-0.83,11.06,1.35,16.17,3.79c1.17,0.56,1.77,1.56,2.03,2.81
		c0.21,0.96-0.04,2.43,1.55,2.22c1.64-0.22,1.98-1.64,2.08-3.06c0.09-1.28-0.04-2.32-1.68-2.65c-1.33-0.27-3.77,0.54-3.41-2.04
		c0.36-2.54,2.63-1.82,4.38-1.83c1.87-0.01,2.8,1.22,3.62,2.61c0.45,0.75,0.95,1.43,1.96,1c1.02-0.43,0.82-1.29,0.64-2.12
		c-0.33-1.52-1.11-2.74-2.7-2.95c-4.85-0.66-9.71-1.26-14.59-1.76c-3.48-0.35-8.09-5.46-7.57-8.87c0.88-5.76,2.1-11.46,2.91-17.23
		c0.38-2.7,0.78-5.32,2.26-7.65c0.66-1.04,2.22-2.12,2.08-2.97c-0.84-5.12,2.24-9.34,3.04-14.07c0.5-2.94,1.93-6.05,4.4-8.56
		c1.65-1.67,3.83-3.47,4.19-6.15c0.45-3.35,2.42-6.23,3.97-8.87c3.06-5.22,7.82-9.44,8.66-15.91c0.11-0.84,1.21-0.77,1.75-1.19
		c2.86-2.21,6.48-1.89,9.63-3.09c1.17-0.44,2.34-2.23,3.5-0.76c1.18,1.5-0.67,2.5-1.53,3.51c-0.79,0.93-2.04,2-0.91,3
		c1.1,0.97,2.26-0.25,3.25-1.08c2.19-1.84,3.73-4.2,5.53-6.36c5.06-6.06,9.34-12.51,9.7-20.62c0.39-8.75-1.17-17.13-7.53-23.78
		c-6.27-6.55-14.12-10.71-22.19-14.67c-6.87-3.38-13.46-7.27-18.58-13.41c-2.2-2.64-5.26-5.34-9.5-5
		c-4.12,0.33-7.87-0.38-10.62-3.91c-0.68-0.87-1.86-1.39-1.43-2.78c0.29-0.92,0.92-1.6,1.88-1.74c1.53-0.23,2.05,1.02,2.62,2.05
		c1.66,3.02,4.5,3.34,7.4,3.01c2.72-0.31,3.35-2.57,3.77-4.92c0.84-4.64,2.24-8.85,7.97-9.41c0.39-0.04,0.96-0.57,1.05-0.96
		c0.17-0.76-0.47-1.2-1.1-1.5c-2.15-1.03-4.54-1.73-6.4-3.14c-3.27-2.47-6.01-5.68-10.8-4.77c-1.17,0.22-2.06-0.82-2.9-1.81
		c-2-2.4-4.2-4.64-6.39-6.87c-0.62-0.63-1.5-1.1-2.46-0.68c-0.98,0.43-1.06,1.38-1.09,2.29c-0.13,3.63,0.62,7.02,2.99,9.88
		c1.3,1.57,1.34,3.24,0.16,4.75c-6.85,8.78-4.56,17.72-0.33,26.55c3.17,6.63,9.43,10.26,15.07,14.41c3.27,2.41,6.02,5.17,7.21,9.19
		c0.62,2.08,2.17,3.23,4.11,3.81c2.57,0.77,5.19,1.35,7.78,2.03c7.67,2.02,14.66,5.36,19.94,11.44c2.42,2.78,3.15,6.27,1.97,9.92
		c-0.41,1.28-1.43,1.98-2.79,1.76c-1-0.17-1.64-0.99-1.36-2c2.21-7.95-3.6-11.64-9.64-14.67c-6.49-3.25-13.63-4.44-20.45-6.51
		c-16.28-4.92-27.43-16.18-38.06-28.41c-3.27-3.76-6.34-7.84-10.19-10.9c-7.81-6.2-17.56-8.43-26.78-11.64
		c-1.14-0.39-3.18-0.95-3.57,0.54c-0.36,1.37,1.42,2.31,2.78,2.75c4.15,1.37,8.16,3.18,12.53,3.84c1.14,0.17,2.07,0.86,1.83,2.11
		c-0.24,1.25-1.35,1.27-2.36,0.99c-1.37-0.38-2.69-0.92-4.06-1.26c-0.41-0.1-1.13,0.09-1.35,0.4c-0.39,0.54,0.17,0.97,0.62,1.23
		c2.85,1.64,5.83,2.93,9.15,3.32c1.5,0.17,3.62-0.05,3.41,2.23c-0.22,2.35-2.06,0.67-3.19,0.85c-1.82,0.28-3.35-1.56-5.22-0.61
		c1.18,2.07,3.29,2.76,5.34,3.4c2.7,0.84,5.5,1.38,8.22,2.18c1.03,0.3,1.59,1.17,1.2,2.31c-0.4,1.17-1.36,0.99-2.26,0.75
		c-1.65-0.44-3.29-0.96-4.95-1.33c-0.41-0.09-0.92,0.28-1.39,0.44c0.33,0.35,0.6,0.77,0.99,1.05c2.77,1.98,6.18,2.19,9.24,3.36
		c1.33,0.51,3.65,1.09,3.05,2.84c-0.57,1.65-2.6,0.59-4.02,0.25c-0.07-0.02-0.14-0.06-0.21-0.08c-0.81-0.16-1.85-1.19-2.38-0.12
		c-0.46,0.94,0.81,1.51,1.5,1.94c3.19,2,6.85,2.47,10.47,3.11c1.18,0.21,2.63,0.78,2.31,2.23c-0.27,1.24-1.72,0.85-2.73,0.77
		c-0.97-0.08-1.92-0.3-2.89-0.41c-0.49-0.06-1.35-0.18-1.43,0c-0.32,0.71,0.52,0.71,0.88,1.02c2.49,2.11,5.59,2.39,8.63,2.85
		c1.6,0.24,4.23-0.41,4.04,1.95c-0.19,2.28-2.7,1.25-4.3,1.28c-0.07,0-0.15-0.04-0.22-0.03c-0.45,0.07-1.07-0.51-1.29,0.29
		c-0.02,0.09,0.67,0.41,1.06,0.57c3.31,1.34,6.54,2.9,10.3,1.47c0.98-0.37,2.1,0.18,2.55,1.35c0.3,0.78-0.28,1.21-0.8,1.68
		c-0.5,0.45-1.78,0.33-1.44,1.37c0.33,1.02,1.46,0.89,2.34,0.9c1.12,0.01,2.26,0.01,3.36-0.15c1.55-0.22,3.52-0.5,3.64,1.39
		c0.11,1.68-2.02,1.22-3.25,1.49c-0.68,0.15-1.72-0.18-1.79,0.88c-0.07,0.99,0.87,1.49,1.65,1.54c2.16,0.15,4.33,0.17,6.5,0.09
		c1.15-0.04,2.44-0.43,2.81,1.03c0.35,1.39-1.07,1.56-1.94,2.06c-0.36,0.21-0.68,0.48-1.01,0.72c0.4,0.14,0.8,0.41,1.19,0.39
		c2.16-0.15,4.31-0.42,6.47-0.54c1.6-0.09,3.74,0.31,2.42,2.31c-2.3,3.47,0.71,2.28,1.83,2.33c1.31,0.06,2.64-0.4,3.95-0.65
		c0.97-0.19,2.22-0.13,2.04,1c-0.7,4.54,2.38,2.66,4.1,2.35c1.71-0.3,2.44-0.01,3.64,1.41c1.26,1.5,3.54,2.38,5.54,2.96
		c1.44,0.42,3.78-0.64,3.65,1.9c-0.12,2.33-2.29,1.96-4.05,1.99c-3.53,0.06-5.95-2.98-8.94-3.51c-9.37-1.66-17.59-6.07-25.86-10.18
		c-4.38-2.18-7.94-6.08-11.71-9.39c-4.58-4.02-10.4-5.88-15-10.4c-5.22-5.12-9.92-10.66-15.01-15.85
		c-7.2-7.35-12.63-16.25-20.39-23.07c-3.38-2.98-4.99-8.09-9.81-9.19c-6.37-1.44-12.01-4.45-17.83-7.15
		c-1.09-0.5-2.55-1.47-3.52-0.37c-0.84,0.96-0.24,2.47,0.37,3.6c0.37,0.69,1,1.29,1.6,1.82c3.95,3.45,9.16,4.25,13.71,6.43
		c1.34,0.64,2.93,1.49,2.22,3.1c-0.78,1.76-2.37,0.53-3.48,0c-2.16-1.03-4.21-2.29-6.36-3.37c-1.08-0.54-2.46-0.98-3.33,0.08
		c-0.79,0.96-0.11,2.2,0.46,3.15c1.47,2.45,3.74,3.67,6.49,4.42c3.43,0.93,6.77,2.25,10.1,3.52c0.72,0.27,1.45,1.05,1.05,2
		c-0.4,0.96-1.44,0.89-2.17,0.62c-2.64-1.01-5.24-2.15-7.84-3.27c-0.96-0.41-1.91-0.68-2.65,0.27c-0.68,0.87-0.18,1.71,0.34,2.47
		c1.84,2.7,4.21,4.57,7.48,5.36c3.05,0.74,6.04,1.76,9.06,2.67c1.27,0.38,1.95,1.36,1.62,2.57c-0.35,1.27-1.55,0.65-2.31,0.44
		c-1.36-0.37-2.61-1.25-3.97-1.42c-1.99-0.25-4.77-2.78-5.76-0.44c-0.99,2.35,2.04,4.08,4.09,5.47c0.06,0.04,0.14,0.06,0.21,0.09
		c3.82,1.86,7.96,2.51,12.1,3.16c1.12,0.18,2.4,0.56,2.13,2.07c-0.3,1.65-1.71,1.49-2.88,1.22c-1.16-0.27-2.24-0.85-3.39-1.2
		c-1.43-0.44-3.42-1.14-4.18,0.12c-0.87,1.44,0.87,2.54,2.08,3.43c1.02,0.75,1.94,1.62,2.98,2.33c3.41,2.36,7.44,1.96,11.27,2.52
		c1.23,0.18,2.88,0.34,2.59,2.11c-0.26,1.6-1.89,1.27-3,1.16c-1.55-0.15-3.06-0.66-4.61-0.92c-1.17-0.19-2.68-1.06-3.3,0.7
		c-0.63,1.81,0.74,2.59,2.11,3.43c4.62,2.85,9.72,3.74,15.01,4.02c0.99,0.05,2.17,0.17,2.25,1.39c0.1,1.5-1.35,1.48-2.29,1.55
		c-1.85,0.14-3.75,0.22-5.53-0.6c-1.04-0.48-2.22-0.64-2.74,0.55c-0.56,1.28,0.44,1.99,1.5,2.6c5.86,3.33,12.1,5.04,18.88,4.62
		c1.11-0.07,2.54,0.14,2.38,1.68c-0.14,1.31-1.37,1.64-2.61,1.52c-1.79-0.18-3.57-0.41-5.36-0.53c-0.66-0.04-1.46,0.09-1.61,0.9
		c-0.06,0.32,0.28,0.92,0.59,1.08c5.36,2.8,11.01,3.73,16.9,2.21c1.66-0.43,3.68-1.75,4.53,0.19c0.87,1.99-1.59,2.2-2.94,2.81
		c-0.68,0.31-1.52,0.49-1.62,1.38c-0.11,1,0.7,1.59,1.43,1.81c5.19,1.54,10.3,3.91,15.83,0.93c1.7-0.92,4.29-3.24,5.54-0.34
		c1.21,2.8-2.35,2.44-3.91,3.36c-0.49,0.29-1.37,0.32-1.2,1.07c0.11,0.47,0.71,0.94,1.2,1.19c3.49,1.8,6.78,1.25,9.91-0.96
		c0.72-0.51,1.51-1.17,2.46-0.59c1,0.62,0.65,1.59,0.35,2.43c-0.64,1.76,0.06,2.38,1.79,2.7c3.04,0.55,5.41-0.55,7.55-2.52
		c0.83-0.76,1.81-1.19,2.85-0.47c1.1,0.76,0.61,1.66,0.08,2.55c-0.81,1.37-0.1,1.85,1.19,2.11c3.03,0.62,4.75-1.78,7-2.95
		c1.1-0.57,2.37-1.12,3.24,0.11c0.84,1.18,0.39,2.57-0.62,3.45c-3.58,3.1-7.65,5.03-12.33,2.93c-2.76-1.24-5.56-1.35-8.42-1.84
		c-5.29-0.89-10.29-3.31-15.82-3.02c-0.21,0.01-0.46-0.09-0.63-0.23c-3.94-3.25-6.8-4.07-11.99-0.28
		c-6.19,4.52-14.34,6.27-21.14,10.52c-7.95,4.97-13.21,11.62-15.17,20.57c-1.43,6.56-0.36,13.44-0.13,20.06
		c0.3,8.54-0.41,16.48-3.67,24.33c-0.58,1.4-2.07,3.84,0.62,4.81c2.67,0.95,5.05,0.23,6.12-2.84c1.97-5.67,1.85-11.6,2.3-17.47
		c0.49-6.45-2.13-12.58-1.94-18.95c0.14-4.84,0.17-9.87,1.91-14.41c2.76-7.2,8.8-11.51,15.14-15.34c0.91-0.55,2.42-0.97,2.95,0.38
		c0.57,1.44-0.48,2.41-1.78,3.18c-6.92,4.09-13.24,8.67-13.89,17.7c-0.58,8.04,0.3,16.03,0.88,24.03
		c0.54,7.37,1.12,14.82-2.41,21.79c-0.59,1.15-0.01,1.78,1.16,1.7c1.73-0.12,3.08-1.02,3.4-2.76c0.61-3.23,1.23-6.45,1.33-9.78
		C215.3,302.54,213.59,294.85,213.64,285.97z M364.04,190.72c-0.1-2.06-0.05-3.12-0.26-4.14c-0.1-0.48-0.68-0.86-1.04-1.29
		c-0.37,0.32-0.82,0.58-1.08,0.97c-0.6,0.9-0.98,2.5-2.35,1.73c-1.44-0.81-0.72-2.3,0.01-3.35c1.81-2.58,3.2-5.31,2.72-8.55
		c-0.21-1.43,0.17-3.7-1.8-3.87c-1.87-0.16-1.83,2.02-2.28,3.39c-0.41,1.25-0.59,3.11-2.42,2.49c-1.82-0.61-1.06-2.37-0.42-3.45
		c2.43-4.1,3.19-8.25,1.33-12.79c-0.58-1.42-0.39-3.55-2.46-3.48c-1.97,0.07-1.17,2.26-1.73,3.45c-0.38,0.82-0.02,2-1.34,2.31
		c-0.84,0.19-1.44-0.15-2-0.72c-0.91-0.93-0.57-1.87-0.15-2.9c1.46-3.53,2.43-7.13,0.73-10.87c-0.46-1.02-0.32-2.68-1.92-2.66
		c-1.74,0.03-0.99,1.72-1.35,2.65c-0.47,1.23-0.8,2.64-2.52,2.23c-1.75-0.42-1.63-2.01-1.11-3.12c2.05-4.39,0.39-8.36-1.19-12.32
		c-0.5-1.25-1.24-3.13-2.83-2.72c-1.43,0.37-0.57,2.22-0.65,3.41c-0.05,0.73,0.24,1.48,0.25,2.23c0.02,1.27-0.23,2.56-1.81,2.59
		c-1.39,0.02-2.03-1.13-1.94-2.31c0.15-1.92-0.15-3.81,0.36-5.78c0.77-2.98,0.24-5.99-1.97-8.38c-0.88-0.95-1.96-2.25-3.44-1.28
		c-1.47,0.96-1.09,2.41-0.44,3.82c0.37,0.81,0.54,1.72,0.69,2.6c0.15,0.91,0.17,1.91-0.92,2.26c-1.12,0.35-2-0.31-2.33-1.26
		c-0.4-1.17-0.39-2.48-0.7-3.7c-1.02-3.89,1.01-8.62-3.14-11.64c-0.56-0.41-1.4-0.85-1.98-0.71c-0.86,0.2-0.75,1.24-0.65,1.94
		c0.24,1.69,0.58,3.38,0.96,5.05c0.21,0.91,0.17,1.68-0.72,2.12c-0.98,0.49-1.94,0.11-2.26-0.8c-0.55-1.53-0.98-3.15-1.14-4.76
		c-0.69-6.67-3.49-12.18-8.65-16.48c-0.65-0.54-1.47-1.02-2.23-0.6c-0.26,0.14-0.02,1.19,0.01,1.83c0.29,5.82,3.31,11,3.93,16.75
		c0.34,3.11,0.36,6.4,1.45,9.27c2.36,6.23,6.76,11.38,10.78,16.52c1.93,2.47,2.9,5.78,5.25,7.52c5.76,4.26,9.31,10.32,13.12,15.93
		c8.3,12.21,14.49,25.43,11.82,40.93c-1.4,8.14-1.61,16.81-9.41,22.37c-1.56,1.11-1.98,3.34-2.12,5.32
		c-0.12,1.72,1.06,2.11,2.12,1.11c4.68-4.42,9-9.19,15.9-10.34c1.61-0.27,1.73-2.66,1.33-4.14c-0.46-1.7-1.8-0.58-2.8-0.34
		c-0.78,0.18-1.59,0.2-1.92-0.66c-0.34-0.89,0.33-1.4,1.03-1.74c0.81-0.39,1.67-0.68,2.48-1.05c3.64-1.69,4.63-7.26,1.72-9.69
		c-0.76-0.63-0.61-1.33-0.02-1.94c0.51-0.54,1.15-0.96,1.69-1.48c2.98-2.88,2.57-6.75-0.89-8.58c-1.24-0.65-0.48-1.33,0-1.98
		C363.11,195.27,364.34,192.76,364.04,190.72z M165.73,316.72c5.49,0.49,10.66-1.28,15.89-2.31c5.21-1.03,9.39-4.82,14.76-5.97
		c2.73-0.58,3.79-4.16,2.61-6.55c-1.12-2.28-3.66-0.75-5.33,0.28c-5.06,3.11-10.76,3.5-16.3,3.1c-6.61-0.47-12.73-3.03-19.66,0.88
		c-6.51,3.67-17.28-2.76-21.07-7.96c-0.9-1.23-1.31-2.77-0.23-4.19c2.66-3.54,1.75-8.51-2.01-10.62c-0.83-0.46-1.58-1.03-1.45-2.06
		c0.13-1.03,1.15-1.04,1.92-1.27c1.13-0.34,2.2-0.12,3.3,0.22c4.48,1.38,6.1-0.15,4.93-4.77c-0.57-2.23,0.32-2.74,2.32-3.29
		c7.02-1.92,17.94,7.1,18.96,13.68c0.32,2.09,1.24,4.09,3.85,4.74c4.82,1.19,9.45,2.64,14.63,2.51c5.55-0.14,10.42-1.72,15.14-4.13
		c1.96-1,1.35-3.32,1.5-5.11c0.08-0.97-0.82-1.6-1.79-1.71c-1.93-0.22-3.93-0.72-5.8-0.44c-7.39,1.11-14.32-1.37-21.21-3.01
		c-10.12-2.41-19.75-6.38-27.66-13.6c-0.83-0.76-1.97-1.31-3.12-0.83c-1.36,0.57-0.89,1.93-0.91,2.98c-0.09,5.38-2.4,8.32-7.59,9.61
		c-0.98,0.24-2.27,0.2-2.56,1.48c-0.28,1.27,0.69,2.04,1.5,2.83c6.65,6.52,4.79,15.62-3.91,18.76c-2.22,0.8-1.91,1.92-0.63,3.05
		c2.06,1.82,4.16,3.7,6.52,5.06C142.65,314.05,153.94,316.46,165.73,316.72z M341.42,218.64c0.21-3.02-0.72-3.77-3.34-2.11
		c-1.28,0.81-2.77,1.69-4.42,0.81c-0.29-0.16-0.59-0.85-0.48-1.12c0.7-1.65,2.2-2.1,3.81-2.33c0.07-0.01,0.15-0.02,0.22-0.05
		c1.71-0.63,2.78-1.96,2.92-3.66c0.15-1.8-0.23-3.82-1.79-4.86c-1.44-0.95-2.53,0.74-3.71,1.42c-0.97,0.56-1.92,1.17-2.94,1.62
		c-0.98,0.43-2.01,0.34-2.47-0.79c-0.45-1.1,0.17-1.93,1.14-2.37c1.36-0.61,2.8-1.06,4.18-1.63c1.33-0.55,1.68-1.7,1.45-2.97
		c-0.36-2.06-1.66-3.53-3.54-4.31c-1.2-0.5-2.04,0.4-2.82,1.33c-0.95,1.13-2.02,2.19-3.16,3.12c-1.01,0.82-2.34,1.15-3.12-0.19
		c-0.79-1.37,0.29-2.17,1.41-2.81c1.09-0.62,2.3-1.15,3.2-1.98c1.45-1.33,0.71-2.92,0.04-4.36c-0.78-1.66-2.39-2.06-3.96-2.1
		c-1.73-0.04-1.54,1.64-1.74,2.69c-0.34,1.75-1.45,2.61-2.99,2.92c-0.51,0.1-1.46-0.31-1.69-0.76c-0.83-1.64,0.7-2.44,1.57-3.33
		c1.36-1.4,1.86-2.84,0.99-4.66c-0.41-0.86-0.95-1.67-1.99-1.5c-1.93,0.32-1.77,2.2-2.33,3.5c-0.55,1.29-1.15,2.48-2.68,2.76
		c-0.76,0.14-1.31-0.28-1.6-0.97c-0.69-1.6,0.66-2.25,1.48-3.16c0.64-0.71,1.07-1.57,0.34-2.42c-0.4-0.46-1.05-0.97-1.61-0.99
		c-1.02-0.04-1.23,0.88-1.37,1.74c-0.26,1.58-0.53,3.57-2.67,3.04c-2.08-0.52-0.97-2.27-0.59-3.57c0.31-1.05,0.22-2.17-0.85-2.48
		c-1.44-0.41-1.14,0.97-1.28,1.77c-0.23,1.32-0.54,2.84-2.22,2.42c-1.58-0.4-1.4-1.84-0.9-3.17c0.71-1.92-1.56-2.99-1.87-2.47
		c-2.57,4.25-3.67,0.04-5.62-0.43c-4-0.96-7.64-2.45-11.23-4.29c-1.31-0.67-3.12-1.14-3.99-0.07c-0.98,1.2,0.46,2.67,1.4,3.38
		c4.6,3.43,9.3,6.75,14.56,9.15c6.11,2.79,12.21,5.62,17.25,10.19c2.98,2.7,5.64,5.86,10.17,5.9c0.64,0.01,1.48,0.35,1.43,1.16
		c-0.03,0.48-0.52,1.09-0.97,1.36c-1.61,0.93-1.62,1.93-0.43,3.22c1.21,1.31,2.58,0.83,3.98,0.53c0.84-0.18,1.72-0.25,2.05,0.79
		c0.28,0.88-0.33,1.36-0.98,1.81c-1.09,0.75-3.02,0.86-2.63,2.85c0.42,2.12,1.68,3.42,4.01,3.52c0.69,0.03,1.61,0.25,1.66,1.21
		c0.04,0.82-0.72,1.04-1.34,1.32c-1.02,0.47-2.57,0.34-2.61,2.01c-0.04,1.62,1.2,2.26,2.4,2.95c0.46,0.26,0.74,0.84,1.1,1.27
		c-0.38,0.3-0.71,0.73-1.14,0.88c-3.38,1.15-3.68,2.63-0.97,5.12c0.57,0.53,1.15,1.04,0.98,1.89c-0.18,0.91-0.96,1.09-1.73,1.13
		c-1.66,0.1-2.48,1.12-3.08,2.54c-2.6,6.15-6.7,11.18-11.34,15.94c-3.13,3.22-7.59,4.51-10.41,8.03c-1.11,1.39-1.68,2.93-0.72,4.31
		c0.97,1.38,2.54,0.49,3.66-0.17c4.59-2.7,9.48-4.96,13.3-8.84c0.37-0.38,1.22-0.33,1.86-0.4c0.47-0.05,0.95,0.01,1.42,0.03
		c-0.18-0.39-0.33-0.81-0.55-1.18c-0.5-0.86-1.02-1.76-0.38-2.72c0.66-0.99,1.67-0.8,2.65-0.55c0.94,0.25,1.97,0.47,1.7-1.06
		c-0.38-2.12,0.87-2.36,2.47-2.48c1.27-0.1,3.22-0.59,2.3-2.11c-2.54-4.24,0.17-4.1,3-4.17c0.85-0.02,1.71-0.24,2-1.16
		c0.3-0.96-0.5-1.26-1.17-1.63c-0.99-0.54-2.7-0.75-2.2-2.32c0.5-1.57,2.08-1.1,3.32-0.91c1.39,0.21,2.42-0.25,2.85-1.58
		c0.47-1.45-0.63-1.95-1.7-2.44c-0.89-0.41-2.55-0.24-2.39-1.55c0.18-1.46,1.88-1.35,2.97-1.35c2.34-0.01,3.37-1.32,3.38-3.33
		c0.01-2.27-1.97-1.47-3.24-1.67c-1.08-0.17-2.55,0.05-2.56-1.51c0-1.3,1.3-1.63,2.35-1.58
		C340.57,223.79,341.57,221.68,341.42,218.64z M311.43,140.41c-0.13-1.61-0.12-2.75-0.33-3.84c-0.17-0.92-0.36-2.13-1.64-2.07
		c-1.37,0.07-1.22,1.3-1.25,2.24c-0.06,1.8,0.3,3.7-0.16,5.38c-2.35,8.55,1.21,15.53,5.6,22.33c3.84,5.94,8.57,11.4,9.84,18.72
		c0.28,1.58,1.28,2.9,2.63,3.8c5.9,3.93,10.97,8.37,14.34,15.02c2.99,5.9,3.69,11.83,3.74,18.12c0.01,1.16-1.23,3,0.98,3.26
		c1.98,0.23,2.71-1.48,2.85-3.1c0.13-1.44-0.72-3.11-0.26-4.35c2.82-7.65,0-15.44,0.76-23.11c0.03-0.27-0.09-0.62-0.26-0.84
		c-0.26-0.33-0.6-0.78-0.95-0.81c-0.27-0.03-0.73,0.45-0.86,0.79c-0.48,1.26-1.22,2.35-2.63,1.6c-1.44-0.77-1-2.09-0.33-3.32
		c1.78-3.31,0.97-6.7,0.15-10.06c-0.16-0.65-0.59-1.36-1.4-1.19c-0.88,0.19-0.69,1.03-0.68,1.68c0.01,1.29,1,3.31-1.4,3.15
		c-2.27-0.15-1.76-2.17-1.56-3.71c0.43-3.43,0.81-6.86-0.89-10.09c-0.47-0.89-0.83-2.2-2.16-1.88c-1.13,0.27-0.76,1.48-0.79,2.33
		c-0.06,1.6,0.02,3.75-2.01,3.6c-1.98-0.14-1.93-2.25-1.73-3.95c0.33-2.83,1.53-5.69-0.6-8.42c-0.64-0.83-0.98-2.16-2.18-1.81
		c-1.16,0.34-0.67,1.66-0.62,2.58c0.07,1.23,0.77,2.58-0.61,3.49c-0.33,0.22-1.07,0.16-1.43-0.07c-1.44-0.91-1.44-2.44-1.14-3.83
		c0.47-2.2,1.05-4.25-0.31-6.46c-0.83-1.34-0.29-4.36-2.32-3.93c-2.42,0.51-0.83,3.15-0.79,4.86c0.02,0.98,0.05,1.86-1.09,2.13
		c-1.04,0.25-1.98-0.04-2.48-1.05c-0.61-1.24-0.64-2.55-0.52-3.94c0.23-2.68,0.34-5.37,0.33-8.06c-0.01-1.23-0.89-2.26-2.14-2.18
		c-1.4,0.09-0.74,1.33-0.71,2.15c0.04,1.04,0.35,2.19-0.78,2.83c-0.78,0.45-1.66,0.19-2.32-0.33c-1.04-0.82-0.99-1.99-0.62-3.09
		C311.25,143.32,311.76,141.69,311.43,140.41z M327.38,374.5c-1.04-0.26-3.12-0.57-5.04-1.3c-2.93-1.11-3.41-4.03-1.22-6.3
		c1.21-1.25,2.86-1.58,4.41-2.09c1.23-0.4,2.76-0.73,2.18-2.46c-0.51-1.51-2.27-2.35-3.45-1.68c-2.45,1.4-4.99,1.54-7.64,1.77
		c-1.56,0.14-3.41,1.15-3.74-1.2c-0.31-2.16,1.66-2.19,3.28-2.77c5.57-1.99,11.35-0.07,16.95-1.2c1.18-0.24,2.98-1.36,3.55,0.41
		c0.61,1.88-1.41,2.03-2.67,2.58c-0.67,0.29-1.86,0.43-1.48,1.58c0.3,0.92,1.28,0.93,2.13,0.79c2.22-0.36,3.72-1.56,4.08-3.85
		c0.38-2.42-0.81-3.8-3.1-4.44c-1.5-0.42-3.32-0.61-4.37-1.57c-3.51-3.24-6.82-2.67-10.21-0.06c-1.57,1.21-2.93,1.3-4.68,0.15
		c-1.74-1.15-4.13-2.22-5.31,0.53c-2.65,6.17-6.14,11.13-13.46,12.01c-1.47,0.18-2.78,0.72-1.2,2.6c1.55,1.85,0.86,3.09-1.38,3.39
		c-3.1,0.42-4.99,2.73-7.28,4.42c-0.47,0.35-1.2,1.04-0.63,1.68c0.35,0.39,1.22,0.5,1.82,0.44c2.05-0.23,3.79-1.23,5.5-2.35
		c4.46-2.93,9.62-4.16,14.63-5.7c1.19-0.37,2.51,0.22,2.56,1.79c0.05,1.55-1.05,2.08-2.44,2.42c-3.39,0.82-6.79,1.64-10.08,2.79
		c-1.52,0.53-2.71,2.65-0.77,3.31c3.2,1.09,6.04,3.52,9.67,3.2c1.15-0.1,2.93,0.5,3.12-1.32c0.19-1.81-1.53-1.68-2.74-1.88
		c-0.76-0.12-1.58-0.23-1.76-1.11c-0.09-0.44,0.04-1.08,0.32-1.42c1.3-1.6,7.49-1.07,8.64,0.68c2.65,4.06,5.71,4.72,10.02,2.15
		c1.69-1,3.5-1.36,5.37-0.7c4.08,1.43,7.99,1.69,11.71-1.07c1.38-1.02,2.98-1.05,4.72-0.74c3.35,0.61,6.53-0.16,9.47-1.85
		c1.31-0.75,1.59-2.12,1.17-3.34c-0.51-1.47-1.6-0.5-2.6-0.34c-2.29,0.38-5.06,0.73-6.73-0.78c-3.85-3.5-9.63-1.43-13.45-5.66
		c-2.93-3.25-6.05,0.52-8.81,2.19c-0.66,0.4-1.85,0.36-1.72,1.46c0.13,1.18,1.33,1.09,2.15,1.21c4.05,0.59,8.11,1.14,12.18,1.63
		c1.37,0.17,2.45,0.69,1.47,2.07c-1.01,1.42-2.07,3.04-4.57,1.72C333.68,375.09,331.16,374.09,327.38,374.5z M274.54,382.84
		c0.3,0,0.63,0.08,0.89-0.01c2.27-0.84,6.29-0.88,6.05-3.35c-0.29-3.05-3.93-1.24-6.12-1.36c-1.61-0.09-4.04,1.22-4.46-0.98
		c-0.44-2.3,2.23-2.6,3.97-3.08c0.82-0.23,1.87-0.22,2.64,0.1c4.95,2.06,8.07-0.79,11.11-3.97c0.61-0.64,1.2-1.4,1.96-1.8
		c2.52-1.34,2.7-2.45-0.13-3.56c-0.84-0.33-1.74-0.78-1.47-1.94c0.27-1.14,1.21-1.49,2.24-1.49c2.24,0,4.49,0.01,6.72,0.15
		c1.76,0.11,8.84-4.86,9.24-6.57c0.26-1.1-0.52-1.57-1.23-1.87c-4.14-1.76-8.49-2.71-12.97-2.94c-0.75-0.04-1.53,0.53-2.3,0.83
		c-1.26,0.51-2,1.43-1.74,2.79c0.3,1.56,1.67,1.61,2.85,1.55c2.09-0.1,4.17-0.4,6.26-0.6c0.81-0.08,1.5,0.15,1.93,0.87
		c0.49,0.82-0.01,1.42-0.53,1.99c-2.63,2.87-5.62,2.14-8.56,0.71c-1.56-0.75-3.85-1.89-4.6-0.7c-1.29,2.06-3.35,2.64-4.95,3.99
		c-1.63,1.37-3.29,2.8-2.69,5.25c0.56,2.28-0.62,3.44-2.49,4.09c-2.92,1.01-5.59,2.57-8.61,3.43c-2.24,0.64-3.61,3.08-1.51,4.79
		C268.41,381.06,271.21,382.82,274.54,382.84z M145.26,289.08c-0.21-3.23-0.18-3.18,1.98-4.52c0.72-0.45,1.5-1.1,1.83-1.85
		c2.1-4.77,3.73-4.95,7.27-1.03c2.13,2.36,3.05,5.06,3.38,8.1c0.14,1.24,0.18,2.53,1.36,3.42c3.26,2.47,7.37,2.57,10.99,4.03
		c0.56,0.22,1.57,0.25,1.62-0.65c0.05-0.83-0.91-0.52-1.42-0.67c-1.22-0.34-2.52-0.47-3.68-0.96c-2.6-1.1-5.77-1.41-6.9-4.71
		c-1.61-4.68-3.29-9.38-7.83-12.09c-1.66-0.99-3.41-2.58-5.5-1.96c-1.35,0.4-1.61,2.23-1.55,3.49c0.13,2.51-1.25,3.49-3.29,4.09
		c-1.16,0.34-2.98,0.96-2.33,2.13c1.98,3.56,1.3,6.83-0.11,10.23c-0.1,0.25-0.02,0.58-0.02,0.87c0.16-0.05,0.39-0.05,0.47-0.17
		C143.37,294.31,147.79,292.92,145.26,289.08z M222.99,311.21c0.03-8.79-2.66-15.95-3.97-23.36c-0.12-0.69-0.69-1.97-1.68-1.7
		c-0.75,0.2-0.3,1.3-0.23,2.03c0.18,1.86,0.15,3.76,0.53,5.57c1.71,8.06,2.26,16.08-0.13,24.11c-0.21,0.7-0.46,1.57,0.35,2.03
		c0.8,0.45,1.44-0.17,1.93-0.73C222.1,316.56,222.52,313.28,222.99,311.21z M283.04,169.25c-0.6-3.35-1.12-6.51-1.75-9.65
		c-0.22-1.12-0.64-2.27-2.21-1.92c-1.44,0.32-1.57,1.44-1.46,2.63c0.27,2.97,0.61,5.93,0.83,8.9c0.13,1.8,0.22,3.76,2.63,3.57
		C283.3,172.6,282.44,170.35,283.04,169.25z M261.87,127.93c-3.18,0.49-6.22,0.89-8.86,2.62c-1.01,0.66-1.48,1.78-0.78,2.71
		c0.99,1.31,1.7-0.1,2.28-0.68c2.88-2.87,6.61-4.3,10.26-3.24c3.97,1.15,7.74,2.18,11.87,1.6c0.64-0.09,1.49,0.32,1.66-0.58
		c0.16-0.82-0.75-0.76-1.27-0.97C272.07,127.41,266.77,129.23,261.87,127.93z M150.13,298.24c1.93-0.39,4.91-0.27,5.08-3.16
		c0.14-2.31-2.5-3.25-4.42-3.2c-2.55,0.06-2.6,2.67-3.04,4.53C147.39,297.94,148.62,298.21,150.13,298.24z M153.56,303.38
		c3.01,0.21,4.93-2.29,7.55-2.87c1.07-0.24,3.13-0.18,2.77-1.46c-0.42-1.48-2.37-2.23-4.12-1.8c-0.96,0.24-2.03,0.81-2.64,1.56
		c-1.06,1.32-2.5,1.83-3.89,2.52c-0.74,0.37-2,0.12-2.02,1.26C151.2,302.84,152.73,303.12,153.56,303.38z M262.25,131.9
		c-1.78-0.02-3.68-0.18-4.42,1.83c-0.5,1.36,0.85,2.09,1.91,2.29c2.06,0.4,4.19,0.08,6.02-0.91c1.37-0.74,1.03-1.97-0.28-2.55
		C264.51,132.14,263.34,132.11,262.25,131.9z M120.63,271.87c1.77-0.19,3.09,0.62,4.37,1.58c1.77,1.33,3.65,1.69,5.63,0.44
		c0.23-0.15,0.39-0.41,0.58-0.62c-0.22-0.15-0.44-0.44-0.66-0.43c-4.63,0.16-8.46-1.16-10.89-5.47c-0.39-0.69-1.93-1.37-1.99,0
		C117.59,269.3,117.33,271.99,120.63,271.87z M192.56,369.09c-0.09,1.35,0.28,2.53,1.21,3.34c1.42,1.24,2.96,0.49,4.41-0.06
		c0.5-0.19,0.88-0.68,0.55-1.27c-0.82-1.46-4.61-1.73-1.83-4.62c-0.19-0.07-0.4-0.22-0.58-0.19
		C194.55,366.57,192.28,366.21,192.56,369.09z M156.06,288.4c-0.59-1.67-0.5-4.39-3.61-4.41c-1.68-0.01-2.1,1.58-1.82,2.77
		c0.5,2.15,2.31,3.23,4.36,3.64C156.09,290.63,156.29,289.7,156.06,288.4z M246.82,292.11c-1.9,1.44-5.62-1.5-6.84,2.38
		c-0.36,1.14,1.13,1.84,1.97,1.4c2.19-1.15,5.58,0.46,6.74-2.77C249.01,292.25,247.89,292.08,246.82,292.11z M274.63,167.8
		c-0.74-1.43,0.33-4.57-1.07-4.2c-1.91,0.51-1.56,3.64-1.75,5.73c-0.1,1.09,0.13,2.78,1.48,2.56
		C275.94,171.46,273.9,169.13,274.63,167.8z M297.81,267.12c0-1.74-0.26-3.35-2.05-3.66c-1.5-0.26-1.49,1.16-1.48,2.19
		c0.02,1.76,0.24,3.92,2.1,4.24C298.06,270.17,297.5,268.07,297.81,267.12z M262.5,141.19c2.48,0.18,3.98-1.78,5.93-2.74
		c-1.76-0.83-3.55-0.26-5.32-0.06c-0.3,0.03-0.6,0.05-0.89,0.12c-1.06,0.26-2.94-0.31-2.87,1.2
		C259.41,141.02,261.21,141.13,262.5,141.19z M125.22,307.35c-0.14-0.17-0.27-0.36-0.44-0.51c-2.19-2.06-4.01-4.38-5.22-7.17
		c-0.44-1.01-1.38-1.56-2.46-1.76c-0.33-0.06-0.7,0.06-1.06,0.09c0.07,0.34,0.03,0.79,0.23,1.01c2.63,2.93,4.89,6.22,8.25,8.44
		c0.18,0.12,0.39,0.19,0.59,0.28C125.16,307.61,125.19,307.49,125.22,307.35z M184.48,301.28c1.25-0.77,3.71,0.54,3.96-1.64
		c0.12-1.03-1.27-2.8-3.02-2.78c-2.11,0.02-1.58,2.35-2.53,3.46C182.31,301,183.76,301.06,184.48,301.28z M116.74,293.16
		c-0.66-1.95-2.14-2.98-3.96-3.6c-0.56-0.19-0.94,0.29-0.65,0.76c1.08,1.73,0.1,4.56,2.47,5.38
		C115.44,295.98,116.33,294.35,116.74,293.16z M250.49,276.01c-1.35,0.19-1.75,1.08-1.62,2.1c0.15,1.24-0.14,2.97,1.65,3.21
		c1.35,0.18,2.31-0.8,2.31-2.16C252.83,277.6,251.64,276.74,250.49,276.01z M260.63,270.62c-0.04-1.25-0.69-1.94-1.95-1.95
		c-1.29-0.01-2.32,0.62-2.32,1.91c-0.01,1.41,1.36,1.66,2.43,1.83C260.06,272.62,260.43,271.66,260.63,270.62z M298.99,257.64
		c-1.13-0.08-1.83,0.33-1.81,1.33c0.03,1.24,0.82,1.87,2.05,1.86c1.46-0.02,2.41-1,2.29-2.23
		C301.38,256.99,299.61,258.39,298.99,257.64z M289.69,275.85c-0.21-0.88-0.03-2.29-1.3-2.2c-1.24,0.09-1.32,1.46-1.29,2.52
		c0.02,0.9,0.11,2.04,1.3,1.98C289.71,278.07,289.57,276.83,289.69,275.85z M247.86,286.64c-1.21,0.07-2.13,0.61-2.3,1.9
		c-0.12,0.88,0.63,1.09,1.33,1.09c1.21,0,2.23-0.46,2.45-1.74C249.51,286.91,248.67,286.72,247.86,286.64z M164.55,273.68
		c0.18-0.06,0.57-0.18,0.96-0.29c-0.16-0.3-0.26-0.78-0.5-0.86c-2.24-0.78-4.5-1.5-6.76-2.22c-0.01,0-0.16,0.31-0.13,0.34
		c1.75,1.46,3.78,2.34,5.96,2.91C164.17,273.57,164.24,273.6,164.55,273.68z M123.48,296.88c0.42-0.2,1.05-0.51,1.68-0.82
		c-1.23-0.4-2.46-0.83-3.71-1.17c-0.42-0.12-1.14,0.04-0.89,0.59C121.02,296.52,122.13,296.71,123.48,296.88z M241.63,287.22
		c0.74,0,1.21-0.37,1.26-1.04c0.07-0.96-0.59-1.54-1.4-1.78c-0.73-0.22-1.1,0.33-1.13,1.01
		C240.31,286.33,240.73,286.97,241.63,287.22z M258.15,279.15c-0.02,0.63-0.14,1.38,0.75,1.3c0.93-0.09,1.04-0.92,1.05-1.67
		c0.01-0.65,0.01-1.55-0.85-1.5C257.94,277.35,258.39,278.51,258.15,279.15z M249.29,268.11c-0.22-0.59-0.57-1.15-1.39-1.09
		c-0.68,0.05-1.15,0.43-1.08,1.16c0.08,0.79,0.62,1.17,1.39,1.15C248.9,269.31,249.34,268.97,249.29,268.11z M344.05,226.03
		c-0.72-0.01-1.08,0.39-1.1,1.08c-0.03,0.67,0.28,1.18,0.99,1.21c0.77,0.03,1.27-0.41,1.27-1.19
		C345.22,226.41,344.69,226.14,344.05,226.03z M176.8,301.43c0.67-0.25,1.87,0.45,1.94-0.72c0.05-0.72-1.05-0.66-1.66-0.58
		c-0.84,0.1-1.66,0.41-2.48,0.63C175.14,301.59,176.04,301.24,176.8,301.43z M255.82,261.84c-0.08-0.6-0.38-0.98-1.03-0.91
		c-0.64,0.07-1.2,0.34-1.22,1.07c-0.02,0.75,0.53,1.03,1.2,1.01C255.49,263,255.81,262.54,255.82,261.84z M264.02,261.3
		c-0.38-0.3-0.81-0.83-1.36-1.02c-0.53-0.18-1.01,0.24-0.98,0.88c0.03,0.69,0.52,1.05,1.17,1.12
		C263.36,262.32,263.9,262.28,264.02,261.3z M254.74,275.41c0.89-0.01,1.28-0.35,1.3-0.95c0.02-0.73-0.49-1.08-1.16-1.09
		c-0.53-0.01-1.2,0.14-1.04,0.82C253.96,274.7,254.49,275.1,254.74,275.41z M133.47,258.69c-0.27,0.68-0.48,0.96-0.41,1.08
		c0.36,0.64,0.8,1.24,1.21,1.86c0.13-0.2,0.41-0.47,0.36-0.6C134.36,260.37,134.01,259.75,133.47,258.69z M244.88,279.69
		c0.35-0.48,0.63-0.78,0.78-1.14c0.03-0.07-0.56-0.57-0.7-0.5c-0.34,0.15-0.64,0.49-0.81,0.83
		C244.1,278.98,244.54,279.32,244.88,279.69z M244.28,274.64c-0.32-0.34-0.49-0.67-0.67-0.68c-0.22-0.01-0.46,0.26-0.69,0.4
		c0.14,0.22,0.25,0.57,0.44,0.63C243.56,275.05,243.84,274.82,244.28,274.64z"/>
	<path d="M394.28,293.32c1.18,0.04,2.94,0.01,4.52-1.16c1.74-1.3,1.93-3.06,1.4-4.84c-0.53-1.79-2.62-2.61-3.81-1.91
		c-3.8,2.21-8.29,0.25-12.04,2.42c-1.35,0.78-3.06,0.93-2.98,3.07c0.03,0.71-0.55,1.04-1.25,0.93c-0.91-0.15-1.15-0.83-1.25-1.63
		c-0.91-7.18-0.24-8.27,6.84-10.8c3.76-1.34,4.56-4.39,3.68-7.65c-0.8-2.98-3.69-3.94-6.36-2.97c-2.97,1.08-5.05-0.07-7.29-1.47
		c-3.91-2.45-11.02,1.25-11.31,5.85c-0.19,3-2.08,6.04,0.76,8.91c0.7,0.71,0.93,1.78,2.2,1.77c1.37-0.01,2.39-0.56,2.64-1.95
		c0.87-4.88,5.25-5.99,8.69-8.04c1.08-0.65,2.53-0.08,3.51,0.86c0.28,0.27,0.39,1.04,0.21,1.4c-0.56,1.13-1.77,0.82-2.76,1.07
		c-3.28,0.81-6.04,2.22-6.88,5.97c-0.81,3.63-0.15,7.2,0.47,10.7c0.51,2.9,3.12,2.17,5.17,2.03c1.24-0.08,2.99-0.61,3.17,1.04
		c0.17,1.55-1.63,1.63-2.88,1.8c-0.66,0.09-1.53,0.3-1.99-0.01c-5.7-3.81-11.53-0.02-17.29-0.24c-5.26-0.2-10.23-1.86-15.5-1.96
		c-3.63-0.07-6.99-2.39-7.71-6.18c-0.69-3.68,1.47-6.38,5.13-7.68c1.03-0.36,1.38-1.45,1.34-2.43c-0.23-6.53,6.37-10.43,12.24-9.22
		c3.22,0.66,6.89,1.62,8.81-3.43c1.56-4.09,10.41-5.14,13.96-2.38c1.47,1.14,3.19,0.72,4.78,0.63c4.37-0.24,7.31,1.31,9.84,5.18
		c1.88,2.87,6.09,2.77,9.39,3.3c2.98,0.48,5.51,1.14,6.35,4.34c0.78,2.99-0.83,5-3.14,6.6c-1.27,0.88-1.77,2.05-1.86,3.62
		c-0.23,4.04-3.25,6.92-7.26,7.21c-1.34,0.1-2.68,0.28-4.01,0.5c-1.34,0.22-2.76,0.43-2.93-1.38c-0.16-1.7,1.32-1.73,2.52-1.83
		C392.15,293.27,392.9,293.32,394.28,293.32z M355.28,273.98c-1.64,0-2.47,0.03-3.29-0.01c-3.53-0.16-5.7,1.48-5.87,5
		c-0.17,3.39,2.83,3.14,4.97,3.64c1.14,0.26,2.84,0.88,3.21-0.89c0.38-1.85-1.41-1.71-2.6-1.99c-0.81-0.19-1.76-0.4-1.72-1.43
		c0.02-0.47,0.52-1.23,0.95-1.34c2.5-0.67,4.66,0.68,6.42,1.96c1.65,1.21,0.89,3.48,0.24,5.24c-0.77,2.11-2.5,1.87-4.33,1.65
		c-2.01-0.24-3.95-0.53-5.9-1.19c-2-0.67-4.23-0.68-5.72,1.35c-1.36,1.85-2.13,3.92-0.87,6.07c1.25,2.14,3.43,1.86,5.45,1.51
		c1.55-0.26,2.9,0.11,4.37,0.54c5.8,1.68,11.66,2.56,17.53,0.22c1.7-0.68,2.25-2.07,2.15-3.81c-0.08-1.33,0.18-2.86-1.27-3.6
		c-1.59-0.81-2.84-0.14-3.88,1.23c-0.25,0.33-0.98,0.54-1.41,0.44c-2.53-0.55-3.94,0.71-5.01,2.78c-0.47,0.92-1.36,1.4-2.42,1.35
		c-0.76-0.04-1.22-0.56-1.44-1.24c-0.34-1.07,0.11-1.96,0.9-2.6c1.86-1.52,3.85-2.8,6.24-3.44c1.78-0.48,2.27-1.48,0.47-2.74
		c-1.28-0.9-2.65-2.19-2.33-3.63C361.27,273.78,358.36,273.43,355.28,273.98z M394.96,275.05c-2.13-0.09-2.88,1.13-3.49,2.3
		c-1.39,2.69-3.4,4.46-6.39,5.17c-0.82,0.19-1.57,0.82-2.24,1.38c-0.26,0.21-0.2,0.8-0.29,1.21c0.41,0.06,0.85,0.26,1.21,0.17
		c5.75-1.43,11.45-3.04,17.5-1.93c1.82,0.33,3.31-0.65,3.76-2.47c0.37-1.49-0.42-3.34-1.72-3.51
		C400.24,276.96,397.14,276.95,394.96,275.05z"/>
	<path d="M262.91,148.2c2.2-0.51,3.01,0.91,3.84,2.28c0.87,1.42-0.22,2.14-1.03,3.03c-1.26,1.41-2.8,2.31-4.63,2.52
		c-2.33,0.28-3.93,1.64-5.56,3.11c-1.07,0.96-2.51,1.59-3.58,0.31c-1.14-1.37,0.13-2.37,1.23-3.03c2.66-1.61,3.66-4.69,5.98-6.63
		C260.39,148.78,261.45,147.9,262.91,148.2z"/>
</g>
</svg>
